<svg version="1.1" id="Layer_1" xmlns="http://www.w3.org/2000/svg" xmlns:xlink="http://www.w3.org/1999/xlink" x="0px" y="0px"
	 width="100%" viewBox="0 0 1536 1024" enable-background="new 0 0 1536 1024" xml:space="preserve">
<path fill="#144F22" opacity="1.000000" stroke="none" 
	d="
M846.000000,1025.000000 
	C564.000000,1025.000000 282.500000,1025.000000 1.000000,1025.000000 
	C1.000000,683.666687 1.000000,342.333344 1.000000,1.000000 
	C513.000000,1.000000 1025.000000,1.000000 1537.000000,1.000000 
	C1537.000000,342.333344 1537.000000,683.666687 1537.000000,1025.000000 
	C1306.833374,1025.000000 1076.666626,1025.000000 846.000000,1025.000000 
M949.762329,588.227417 
	C949.904358,587.828979 950.046326,587.430603 949.984863,587.117676 
	C949.984863,587.117676 950.070618,587.321045 950.760193,587.269409 
	C950.940735,586.878906 951.121338,586.488342 951.088806,586.391602 
	C951.088806,586.391602 951.382690,586.604492 951.956238,586.284119 
	C952.087708,585.892944 952.219238,585.501709 952.097229,585.405579 
	C952.097229,585.405579 952.392517,585.658875 952.945740,585.377136 
	C953.325256,584.919556 953.704834,584.462036 953.991333,583.999451 
	C953.991333,583.999451 953.986084,584.092468 954.453247,583.871826 
	C954.630554,583.585693 954.807800,583.299561 955.024780,583.017761 
	C955.024780,583.017761 955.013611,582.979431 955.538513,582.665955 
	C955.831970,582.135803 956.125427,581.605652 956.081177,581.104797 
	C956.081177,581.104797 956.111267,581.442444 956.710693,581.285278 
	C957.108459,580.839294 957.506287,580.393311 957.967041,579.970276 
	C957.967041,579.970276 957.942688,579.907898 958.429504,579.677429 
	C958.726379,579.252014 959.023315,578.826538 959.403931,578.389587 
	C959.403931,578.389587 959.395447,578.305542 959.926331,577.995850 
	C961.058594,576.749268 962.190857,575.502747 963.170715,574.182800 
	C963.170715,574.182800 963.098572,574.335754 963.609375,574.089111 
	C963.786499,573.764709 963.963623,573.440247 964.607239,572.908813 
	C964.797241,572.632568 964.987305,572.356323 965.638855,571.869568 
	C965.795593,571.573547 965.952332,571.277527 966.008118,571.007812 
	C966.008118,571.007812 966.034790,571.108643 966.593384,570.786438 
	C966.867310,570.211853 967.141235,569.637268 967.119507,569.114685 
	C967.119507,569.114685 967.172424,569.410217 967.730347,569.121521 
	C967.859741,568.734558 967.989075,568.347595 967.999695,568.032654 
	C967.999695,568.032654 968.071960,568.151306 968.608765,567.741882 
	C969.193420,566.524292 969.778076,565.306763 970.178162,564.166382 
	C970.178162,564.166382 970.256470,564.350525 970.777649,564.021851 
	C971.423279,563.001953 972.068970,561.982117 973.067139,560.723633 
	C973.067139,560.723633 973.220764,560.326660 973.637817,560.049133 
	C973.870972,559.384644 974.104187,558.720215 974.159363,558.180603 
	C974.159363,558.180603 974.285034,558.358032 974.859436,557.930603 
	C976.334961,554.103455 977.810486,550.276245 979.461182,546.398682 
	C979.461182,546.398682 979.465515,546.216431 979.868958,545.768250 
	C980.023682,545.184814 980.178345,544.601379 980.162781,544.182739 
	C980.162781,544.182739 980.328247,544.352478 980.835144,543.869812 
	C983.382446,538.274353 985.929749,532.678894 988.244446,527.176514 
	C988.244446,527.176514 988.338989,527.408569 988.873413,526.956482 
	C989.342041,525.659119 989.810730,524.361816 990.211487,523.150085 
	C990.211487,523.150085 990.297729,523.217224 990.886414,522.777954 
	C992.217041,516.830383 993.446838,510.857880 994.909119,504.942871 
	C996.152588,499.912994 994.945984,498.430725 989.972473,499.629547 
	C988.276611,500.038330 986.723755,501.040894 984.869995,501.798187 
	C984.869995,501.798187 984.737793,501.994904 984.129944,502.054230 
	C983.002991,502.566040 981.876099,503.077881 980.675476,503.554138 
	C980.675476,503.554138 980.637390,503.626434 979.846680,503.790588 
	C977.915039,504.196136 975.981689,504.593842 974.052063,505.008636 
	C967.989990,506.311829 961.929260,507.621490 955.960571,508.974976 
	C955.960571,508.974976 956.006775,508.882355 955.166992,509.043671 
	C950.162476,509.202057 945.157898,509.360443 940.213074,509.653290 
	C940.213074,509.653290 940.346680,509.591583 939.903992,509.239227 
	C939.269653,509.495605 938.635376,509.751984 938.002441,510.002441 
	C938.002441,510.002441 938.008728,510.002930 937.504761,510.160370 
	C937.309937,510.438232 937.115112,510.716095 937.006653,511.003357 
	C937.006653,511.003357 937.016235,510.916992 936.431030,510.977142 
	C936.169495,511.256409 935.907898,511.535645 935.869873,511.939240 
	C935.869873,511.939240 935.993713,511.715515 935.354553,511.860901 
	C934.588318,512.255798 933.822144,512.650757 932.257446,512.967834 
	C930.675354,512.636719 928.751770,512.768066 927.569641,511.895203 
	C922.189453,507.922668 917.017883,503.667603 911.846558,499.573761 
	C918.914001,494.187836 918.924011,494.179016 912.290222,486.637299 
	C908.557861,482.394257 904.919067,478.057495 900.997559,473.995209 
	C896.262451,469.090118 892.041626,462.622437 886.192993,460.135071 
	C879.284912,457.197144 878.510132,452.224152 877.192566,446.774750 
	C874.660706,436.303497 870.439575,426.975067 861.254517,420.543884 
	C859.966736,419.642212 858.592529,418.109985 858.306396,416.662415 
	C857.067078,410.393951 855.888794,404.078125 855.316223,397.722900 
	C854.728577,391.200012 853.121948,385.507507 848.208862,380.720367 
	C845.427917,378.010590 843.230469,374.451233 841.564331,370.901703 
	C838.349792,364.053680 836.471802,356.483673 832.654602,350.032562 
	C824.373352,336.036957 820.328003,320.339661 813.670776,305.717133 
	C812.469055,303.077484 812.006042,300.101532 811.202026,297.280823 
	C811.602783,297.105682 812.003601,296.930542 812.404358,296.755402 
	C814.242676,300.512787 816.081055,304.270172 817.838135,308.576202 
	C819.060852,312.019653 819.834229,315.819092 824.211182,316.726349 
	C824.211182,316.726349 824.215698,316.655212 824.549744,317.248718 
	C826.843994,317.444397 829.138184,317.640076 831.432434,317.835754 
	C831.467468,317.395752 831.502563,316.955719 831.537598,316.515717 
	C833.083862,317.308228 834.630066,318.100708 836.100403,318.894470 
	C836.100403,318.894470 836.099976,318.818512 836.317871,319.388245 
	C836.919067,319.886169 837.520325,320.384094 838.742310,321.168854 
	C839.164978,321.674561 839.673767,322.130737 839.997498,322.693329 
	C845.952576,333.043518 851.684570,343.529724 857.923828,353.705017 
	C860.360107,357.678253 863.814209,361.061920 867.004822,364.530060 
	C871.793579,369.735413 875.387878,375.513672 875.594055,382.752289 
	C875.864136,392.236511 877.705994,400.801392 886.514771,406.332336 
	C888.294312,407.449738 890.033142,409.049622 891.084656,410.841461 
	C897.892700,422.442352 904.569092,434.122467 911.114990,445.873352 
	C912.130005,447.695343 912.366455,449.991821 912.771973,452.105499 
	C914.609375,461.683594 916.351990,471.279877 918.180359,480.859711 
	C919.598999,488.292694 925.662415,491.260559 932.426025,488.338837 
	C942.394348,484.032837 952.514465,480.078125 962.573792,475.983276 
	C962.876709,475.859924 963.230957,475.757721 963.547546,475.788269 
	C969.080078,476.322540 973.379456,473.524017 977.852844,470.852997 
	C980.668945,469.171478 983.916321,468.181915 987.022888,467.023071 
	C994.811218,464.117767 1002.733582,461.534485 1006.474792,452.917084 
	C1007.129700,451.408508 1008.900330,449.938782 1010.487122,449.360413 
	C1016.146362,447.297638 1021.870178,445.287354 1027.726318,443.937134 
	C1031.161377,443.145142 1033.884155,442.230255 1035.116943,438.675934 
	C1036.506592,434.669739 1039.505493,433.169678 1043.605103,433.007904 
	C1044.726929,432.963623 1045.892334,431.789124 1046.878174,430.946655 
	C1049.929810,428.338593 1052.956543,425.695770 1055.883301,422.949646 
	C1057.022705,421.880524 1058.867432,420.332245 1058.692017,419.287567 
	C1057.302490,411.013977 1062.339722,406.509186 1067.722900,401.657135 
	C1071.296265,398.436310 1073.997803,394.170807 1076.762573,390.148224 
	C1080.951294,384.053680 1074.683472,381.393219 1072.269653,377.487671 
	C1071.744873,376.638611 1071.321655,375.617035 1070.571899,375.036469 
	C1067.791016,372.883453 1065.170776,370.088501 1061.986572,368.973297 
	C1052.859985,365.777069 1045.888916,361.147797 1045.143799,350.447113 
	C1045.032471,348.851288 1043.880615,347.327942 1043.210327,345.770996 
	C1041.541870,346.738708 1039.536377,347.387726 1038.265625,348.731476 
	C1033.702881,353.555939 1029.452759,358.674591 1024.937256,363.545654 
	C1023.750305,364.826141 1022.118469,366.309082 1020.543518,366.503204 
	C1015.158203,367.167084 1009.597656,364.107544 1004.258484,367.180328 
	C1004.160095,367.236969 1003.939697,367.112793 1003.789612,367.043976 
	C995.595337,363.285767 993.808105,364.460449 995.252747,353.819855 
	C995.713074,350.429474 994.703369,346.839569 994.366394,343.340973 
	C993.667542,343.347565 992.968689,343.354126 992.269836,343.360718 
	C990.860596,347.988281 989.451416,352.615875 987.672424,358.457642 
	C983.350891,352.312500 980.602478,346.829834 980.023315,340.458923 
	C979.513794,334.852814 977.430542,330.491150 972.711853,326.984009 
	C969.496216,324.594086 967.102539,321.026947 964.576965,317.801605 
	C962.466309,315.106110 961.090698,311.739410 958.683838,309.394196 
	C955.231445,306.030121 955.142761,303.151581 957.861572,299.380707 
	C959.207397,297.514130 960.504822,294.927582 960.345581,292.776184 
	C959.533203,281.793976 953.929077,274.007019 943.982544,269.015442 
	C936.643860,265.332581 934.177124,259.525177 936.027039,251.338486 
	C937.700684,243.932098 936.707581,238.403152 929.149048,234.296646 
	C924.204956,231.610565 920.545898,226.621262 916.114319,222.897980 
	C914.437744,221.489273 912.307434,220.135727 910.213501,219.790497 
	C899.703918,218.057724 889.488037,219.764923 879.164673,222.150177 
	C873.352356,223.493149 866.537292,224.067780 861.071411,222.266022 
	C856.260620,220.680222 855.148010,222.195160 852.886597,225.200089 
	C850.407959,228.493744 849.554199,231.852386 849.945068,235.874161 
	C850.232178,238.828323 850.708984,242.167236 849.679199,244.772659 
	C846.199585,253.576828 842.568054,262.396088 838.009583,270.666626 
	C835.761536,274.745209 831.785339,279.777283 827.824707,280.575531 
	C821.283691,281.893890 814.329468,280.621948 807.487488,277.771973 
	C796.117554,273.035980 791.343445,271.424561 783.361023,280.537720 
	C782.817932,281.157745 782.182678,281.942749 781.461365,282.116760 
	C778.854858,282.745544 775.958130,284.075806 773.591736,283.477295 
	C760.917358,280.271667 748.366455,276.576050 735.786011,273.003571 
	C734.864746,272.741974 734.070923,272.061249 733.177429,271.667053 
	C724.863281,267.998901 716.596130,264.214020 708.186096,260.779694 
	C705.636597,259.738525 702.665344,259.178101 699.921143,259.283051 
	C694.582153,259.487274 689.729980,260.597382 686.323181,265.830170 
	C683.536377,270.110535 683.683228,274.252167 684.420410,278.708557 
	C685.056213,282.552185 685.960205,286.559326 682.192566,289.207245 
	C678.018799,292.140564 673.919800,291.773499 669.259766,289.117554 
	C662.222534,285.106781 654.867493,281.326660 647.191650,278.877502 
	C642.028625,277.230103 638.843445,274.704742 636.664551,270.090668 
	C635.915833,268.505157 634.893799,266.591736 633.468079,265.864624 
	C628.210510,263.183472 622.847778,260.605072 617.290833,258.654083 
	C614.117310,257.539886 610.171936,258.460968 607.132385,257.160645 
	C599.545044,253.914734 592.118042,250.202652 584.939148,246.127167 
	C580.548218,243.634399 580.880432,240.955139 584.783630,237.526260 
	C587.763977,234.908127 590.839111,232.248459 593.140015,229.076263 
	C594.133179,227.707001 594.139221,224.290390 593.102661,223.031677 
	C590.080933,219.362335 590.148743,215.887848 591.937988,211.924057 
	C592.590637,210.478363 592.919861,208.886765 593.396667,207.361740 
	C593.189026,206.900177 592.981384,206.438614 592.773804,205.977066 
	C588.917114,210.023178 586.684814,208.567551 583.390198,205.706116 
	C581.201050,203.804749 575.984375,203.420425 573.162537,204.682220 
	C569.027466,206.531174 566.019348,205.541855 562.302368,204.362671 
	C558.838806,203.263916 555.042725,202.836975 551.385986,202.798859 
	C542.861938,202.709991 534.329529,202.917435 525.808716,203.230515 
	C520.359741,203.430740 514.319336,202.661636 509.611542,204.742325 
	C499.912689,209.028839 490.661011,214.522339 481.752258,220.327759 
	C476.451874,223.781754 471.940338,227.785751 465.050720,224.929398 
	C463.625214,224.338394 461.736511,224.439682 460.152496,224.726151 
	C451.142456,226.355698 442.836395,226.141708 437.205017,215.616898 
	C435.892975,218.676682 434.748047,220.623932 434.210022,222.726440 
	C431.880463,231.830414 427.313446,239.054108 418.785767,243.734390 
	C410.431366,248.319580 403.806091,254.361038 399.426727,263.497925 
	C396.412048,269.787598 395.691833,275.152496 397.482117,281.502655 
	C397.958893,283.193878 397.636200,285.467651 396.857422,287.075134 
	C395.567780,289.737091 393.694580,292.137848 391.918396,294.538513 
	C386.199524,302.267822 379.044098,307.744446 369.321747,309.708954 
	C367.287994,310.119965 365.323700,312.306641 363.939667,314.137817 
	C362.213745,316.421417 361.418427,319.408051 359.693726,321.692902 
	C356.322540,326.159119 351.848114,329.938385 349.168976,334.747742 
	C344.947540,342.325836 342.199402,350.389343 336.605743,357.614075 
	C330.955902,364.911377 328.883026,375.043823 325.620331,384.070587 
	C324.930878,385.978149 325.027863,389.610474 326.220062,390.504639 
	C331.007904,394.095367 330.129761,398.721527 330.046387,403.530304 
	C329.995605,406.456635 330.954529,409.396576 331.418823,412.336884 
	C331.830353,414.943329 332.446106,417.551392 332.520020,420.171448 
	C332.851959,431.938171 329.552429,442.786102 324.150513,453.150818 
	C323.523224,454.354401 324.561035,456.425812 325.102356,458.894745 
	C325.285461,461.967285 325.415833,465.044128 325.664368,468.111359 
	C326.011902,472.400604 326.447571,476.682709 326.811096,481.134613 
	C326.811096,481.134613 326.969482,481.197021 327.004730,481.658813 
	C327.246216,482.028076 327.487671,482.397339 327.776794,483.114868 
	C327.776794,483.114868 328.011902,483.376160 328.088318,483.870300 
	C328.356750,484.030701 328.625153,484.191132 328.604431,484.235809 
	C328.604431,484.235809 328.489044,484.525055 328.797577,485.054474 
	C329.492035,485.428894 330.186493,485.803314 331.293060,486.723267 
	C334.533264,488.953430 338.965485,490.495728 340.740417,493.571442 
	C343.556061,498.450684 347.913483,501.411163 351.559357,505.224487 
	C356.239746,510.119904 360.809265,514.778748 361.197601,522.327393 
	C361.522247,528.638367 364.700226,533.678406 371.087982,536.031982 
	C381.517883,539.874817 388.686310,548.223022 397.197754,554.751038 
	C402.925781,559.144348 409.306549,562.748108 415.656036,566.229492 
	C417.389404,567.179932 420.200439,566.906982 422.283081,566.338684 
	C428.463440,564.652161 434.526764,562.536926 440.636810,560.592407 
	C448.734161,558.015381 457.019531,558.989441 464.435089,561.920227 
	C471.081085,564.546875 476.219849,563.643982 482.094391,560.080322 
	C482.618134,559.765503 483.141846,559.450684 483.933960,559.166321 
	C483.933960,559.166321 484.116638,558.967346 484.674835,558.903870 
	C484.864044,558.624023 485.053284,558.344238 484.930817,558.224915 
	C484.930817,558.224915 485.091522,558.536560 485.760529,558.385376 
	C486.283081,557.979919 486.805664,557.574524 487.182770,556.967896 
	C487.182770,556.967896 486.981445,557.113159 487.810486,557.246582 
	C491.953888,555.919373 496.097290,554.592163 500.161224,553.091919 
	C500.161224,553.091919 499.988312,553.171570 500.667114,553.402954 
	C501.211029,552.997803 501.754944,552.592590 502.653839,552.111572 
	C502.653839,552.111572 502.906952,551.851318 503.525024,551.703369 
	C504.206024,551.259888 504.886993,550.816406 505.953796,550.294067 
	C505.953796,550.294067 506.241302,550.025024 506.997192,549.946838 
	C517.949341,547.172668 528.902100,544.821472 539.858765,550.082153 
	C539.858765,550.082153 540.030762,550.135742 540.149780,550.578125 
	C540.327454,550.861145 540.583191,551.011536 541.157837,551.470215 
	C541.423828,551.667358 541.689880,551.864563 542.120667,552.575256 
	C542.405640,552.786255 542.690552,552.997314 542.934570,553.087097 
	C542.934570,553.087097 542.813599,553.128601 543.048828,553.637268 
	C543.364685,553.792175 543.680603,553.947144 543.999268,553.978455 
	C543.999268,553.978455 543.875732,553.975403 543.817017,554.596252 
	C544.107056,555.123291 544.397095,555.650269 544.660217,556.275452 
	C544.660217,556.275452 544.757690,556.304749 544.892639,556.901550 
	C545.308960,557.860413 545.725281,558.819336 546.227112,560.799255 
	C546.350647,561.117676 546.474182,561.436157 546.637329,562.172974 
	C547.059143,562.846680 547.481018,563.520325 547.983948,564.044128 
	C547.983948,564.044128 547.833923,563.963257 547.926697,564.603394 
	C548.247009,564.866150 548.567322,565.128845 548.755554,565.201965 
	C548.755554,565.201965 548.566650,565.335144 549.043518,565.908081 
	C552.424744,566.314575 555.805420,567.051941 559.187378,567.058228 
	C566.104431,567.071045 573.022156,566.691101 579.947693,566.136902 
	C579.947693,566.136902 579.611572,566.129578 579.894775,566.695618 
	C580.276978,566.854797 580.659180,567.013916 581.034973,566.975769 
	C581.034973,566.975769 580.837646,566.981812 581.001221,567.460388 
	C581.281311,567.629883 581.561401,567.799377 582.122620,568.602844 
	C582.700378,569.417969 583.120728,570.441772 583.880737,571.015442 
	C590.212402,575.794861 590.306335,582.273438 588.968262,589.167542 
	C587.959778,594.363708 587.105896,599.598816 585.852112,604.735718 
	C584.861145,608.795898 583.381897,612.738159 582.086609,616.722107 
	C581.689880,617.942383 580.466980,619.463562 580.846375,620.273438 
	C583.148071,625.186279 585.239319,630.361450 588.477966,634.632019 
	C592.980530,640.569214 598.392395,645.823486 603.485840,651.304321 
	C612.058594,660.528992 613.517944,673.137695 619.020691,683.822083 
	C619.926819,685.581360 620.609375,687.522095 621.017212,689.458557 
	C621.964661,693.956787 624.595093,699.347839 623.055420,702.838623 
	C620.569641,708.474548 622.645203,712.295898 624.431091,716.862854 
	C626.297424,721.635315 628.169250,726.458618 629.378235,731.420654 
	C630.645569,736.622742 628.287476,741.298767 624.150574,744.019531 
	C620.546021,746.390137 619.023376,749.349365 617.929626,753.102478 
	C616.075745,759.464050 614.250732,765.848145 612.024048,772.083679 
	C608.392822,782.251892 607.016968,792.247314 612.508911,802.242493 
	C615.147644,807.044922 617.620056,811.939575 620.123901,816.815002 
	C623.832764,824.036682 627.538513,831.260498 631.169373,838.521423 
	C632.418335,841.019165 633.999146,843.532776 634.467529,846.207397 
	C636.524902,857.956116 638.139709,869.781494 640.097900,881.548645 
	C641.277100,888.634766 643.065430,895.363342 648.426636,900.900757 
	C651.804260,904.389404 654.368469,908.851868 656.584290,913.237793 
	C660.392578,920.776062 663.767456,928.543457 667.060425,936.326294 
	C668.195984,939.010193 669.912476,942.631226 668.969116,944.766235 
	C666.986389,949.253540 668.872375,952.519714 669.552979,956.624268 
	C671.018494,965.461853 679.549500,965.608765 683.936035,970.571716 
	C684.526184,971.239380 686.862122,970.817993 688.168396,970.320251 
	C693.849731,968.155579 699.430359,965.728027 705.093384,963.513000 
	C706.290405,963.044861 707.673889,963.010681 708.981628,962.874878 
	C720.049194,961.725708 731.195374,964.037292 742.323486,960.976440 
	C752.590027,958.152527 762.316467,955.014465 769.862366,947.062256 
	C772.490479,944.292664 775.527283,941.912170 778.171143,939.156189 
	C783.559692,933.539124 789.015381,927.963623 794.048645,922.035828 
	C798.071838,917.297607 801.684692,912.180359 805.158325,907.015198 
	C808.364258,902.248230 811.655457,897.413696 813.900818,892.176575 
	C815.088318,889.406799 814.928772,885.456909 813.970398,882.495117 
	C811.970093,876.313782 812.677063,873.907776 818.662415,871.935364 
	C820.715454,871.258728 822.781067,870.616638 824.815491,869.887817 
	C832.211487,867.238342 838.033875,864.591248 838.372070,854.287903 
	C838.648376,845.869690 837.346436,838.653625 833.823425,831.474304 
	C831.534119,826.809204 832.342957,820.206299 835.769714,817.201904 
	C842.740540,811.090210 849.463867,804.677856 856.669006,798.859680 
	C860.208252,796.001709 864.376282,793.568665 868.654419,792.069580 
	C873.936523,790.218567 878.993225,788.428406 882.534912,783.845154 
	C886.359558,778.895752 890.158936,773.926941 894.338562,768.269958 
	C894.453064,765.817200 894.729614,763.359375 894.654114,760.912476 
	C894.324341,750.221863 893.874329,739.535095 893.509583,728.845459 
	C893.414368,726.055725 893.917175,723.044800 890.021179,722.057129 
	C890.021179,722.057129 889.972900,721.871216 889.570190,721.599854 
	C889.292786,721.432312 889.019226,721.258850 888.084717,720.949829 
	C880.169006,712.464722 878.614075,702.258789 880.728943,691.402527 
	C881.381287,688.054077 881.825928,686.021912 878.250061,684.156311 
	C874.764038,682.337524 872.911743,678.847534 874.264832,674.844482 
	C878.353760,662.747131 884.903931,651.880066 893.648315,642.762146 
	C897.819641,638.412476 902.222961,634.418701 906.014160,629.581604 
	C914.917053,618.222656 924.008179,606.910461 936.751709,599.336731 
	C939.418701,597.751648 941.586060,595.325806 944.571228,593.015137 
	C945.142395,592.382812 945.713562,591.750549 946.150330,590.961975 
	C946.150330,590.961975 945.993835,591.096191 946.620117,591.075195 
	C946.873779,590.751770 947.127441,590.428406 947.112488,590.116943 
	C947.112488,590.116943 947.125366,590.385559 947.715393,590.123108 
	C947.888489,589.759521 948.061584,589.395935 948.039368,589.002991 
	C948.039368,589.002991 948.010376,589.198425 948.695068,589.191162 
	C948.856628,588.807556 949.018127,588.423950 948.998901,588.113464 
	C948.998901,588.113464 949.072205,588.294189 949.762329,588.227417 
M922.008545,830.981689 
	C922.008545,830.981689 921.961060,830.873413 921.408386,831.196228 
	C921.134338,831.766174 920.860291,832.336121 920.767456,832.721680 
	C920.767456,832.721680 920.582092,832.541321 920.135864,832.937805 
	C919.731689,833.597961 919.327454,834.258118 918.997559,835.000000 
	C918.997559,835.000000 918.929077,834.914185 918.326050,835.376892 
	C918.448608,839.897156 918.365356,844.435425 918.757446,848.932190 
	C919.084412,852.683167 919.752625,856.439758 920.669556,860.093506 
	C921.513367,863.455750 922.890320,866.684265 924.000000,869.997803 
	C924.000000,869.997803 924.029480,869.967407 924.237122,870.533020 
	C924.726379,870.886597 925.215637,871.240234 925.834351,871.313599 
	C925.834351,871.313599 925.553528,871.185547 925.728516,871.740417 
	C926.049133,871.932373 926.369751,872.124329 926.707214,872.411316 
	C926.707214,872.411316 926.802673,872.397278 927.266052,872.900574 
	C930.985474,873.150879 934.077698,877.878296 938.379395,874.457886 
	C938.379395,874.457886 938.391724,874.391663 938.976990,874.200562 
	C940.038940,873.582031 941.100891,872.963501 942.305237,872.384583 
	C942.305237,872.384583 942.347534,872.242920 943.079651,872.163391 
	C945.706238,870.802429 948.332886,869.441528 951.202026,867.906311 
	C951.202026,867.906311 951.266602,867.614624 951.772461,867.110535 
	C953.659058,862.136230 955.545654,857.161987 957.346497,852.196533 
	C957.346497,852.196533 957.357483,852.282104 957.762207,851.716797 
	C957.943909,850.800659 958.125610,849.884521 958.105225,849.056824 
	C958.105225,849.056824 958.194397,849.258667 958.724426,848.773987 
	C959.652832,845.675049 960.581299,842.576172 961.895630,838.762634 
	C964.854004,829.771912 967.586670,820.698853 970.825745,811.810425 
	C975.242188,799.691101 979.388489,787.582581 978.250366,774.383972 
	C978.234680,774.201416 978.672363,773.979736 979.439270,773.289673 
	C980.563721,774.975647 981.634521,776.581238 982.705322,778.186768 
	C983.238708,778.261047 983.772095,778.335266 984.305481,778.409546 
	C984.829956,776.570496 986.031616,774.622131 985.755493,772.912476 
	C984.830750,767.187866 983.519775,761.512146 982.077759,755.889221 
	C981.096191,752.062012 979.911987,748.234497 978.282593,744.650635 
	C977.600586,743.150391 975.531616,742.280762 974.093262,741.124390 
	C973.398438,742.667480 972.580872,744.168579 972.035339,745.762756 
	C971.028076,748.706116 971.977722,752.376343 967.643250,753.921387 
	C965.581543,754.656311 964.069458,757.166321 962.518188,759.045410 
	C960.157349,761.905212 958.237183,765.169373 955.655273,767.795166 
	C952.683472,770.817505 949.195312,773.331970 945.414612,776.183228 
	C945.229065,776.444824 945.043518,776.706421 945.032227,776.966248 
	C945.032227,776.966248 945.030029,776.792053 944.167725,776.753723 
	C941.360779,777.423706 938.553833,778.093689 935.909607,778.828796 
	C935.909607,778.828796 935.973694,778.665649 935.252747,778.708191 
	C934.075623,779.417114 932.898499,780.126038 931.892822,780.844177 
	C931.892822,780.844177 931.900940,780.672668 931.222778,780.892395 
	C928.945984,786.586670 926.669189,792.281006 924.304932,798.716064 
	C924.411865,799.197205 924.518799,799.678406 924.614136,800.902527 
	C925.764404,808.876587 929.590820,816.726013 925.832886,824.720398 
	C925.832886,824.720398 925.619812,824.621460 925.096069,825.041565 
	C924.274719,826.643616 923.453369,828.245667 922.834839,829.867554 
	C922.834839,829.867554 922.853577,829.664612 922.344055,829.960327 
	C922.196167,830.316711 922.048340,830.673096 922.008545,830.981689 
z"/>
<path fill="#E7B930" opacity="1.000000" stroke="none" 
	d="
M893.969238,768.966553 
	C890.158936,773.926941 886.359558,778.895752 882.534912,783.845154 
	C878.993225,788.428406 873.936523,790.218567 868.654419,792.069580 
	C864.376282,793.568665 860.208252,796.001709 856.669006,798.859680 
	C849.463867,804.677856 842.740540,811.090210 835.769714,817.201904 
	C832.342957,820.206299 831.534119,826.809204 833.823425,831.474304 
	C837.346436,838.653625 838.648376,845.869690 838.372070,854.287903 
	C838.033875,864.591248 832.211487,867.238342 824.815491,869.887817 
	C822.781067,870.616638 820.715454,871.258728 818.662415,871.935364 
	C812.677063,873.907776 811.970093,876.313782 813.970398,882.495117 
	C814.928772,885.456909 815.088318,889.406799 813.900818,892.176575 
	C811.655457,897.413696 808.364258,902.248230 805.158325,907.015198 
	C801.684692,912.180359 798.071838,917.297607 794.048645,922.035828 
	C789.015381,927.963623 783.559692,933.539124 778.171143,939.156189 
	C775.527283,941.912170 772.490479,944.292664 769.862366,947.062256 
	C762.316467,955.014465 752.590027,958.152527 742.323486,960.976440 
	C731.195374,964.037292 720.049194,961.725708 708.981628,962.874878 
	C707.673889,963.010681 706.290405,963.044861 705.093384,963.513000 
	C699.430359,965.728027 693.849731,968.155579 688.168396,970.320251 
	C686.862122,970.817993 684.526184,971.239380 683.936035,970.571716 
	C679.549500,965.608765 671.018494,965.461853 669.552979,956.624268 
	C668.872375,952.519714 666.986389,949.253540 668.969116,944.766235 
	C669.912476,942.631226 668.195984,939.010193 667.060425,936.326294 
	C663.767456,928.543457 660.392578,920.776062 656.584290,913.237793 
	C654.368469,908.851868 651.804260,904.389404 648.426636,900.900757 
	C643.065430,895.363342 641.277100,888.634766 640.097900,881.548645 
	C638.139709,869.781494 636.524902,857.956116 634.467529,846.207397 
	C633.999146,843.532776 632.418335,841.019165 631.169373,838.521423 
	C627.538513,831.260498 623.832764,824.036682 620.123901,816.815002 
	C617.620056,811.939575 615.147644,807.044922 612.508911,802.242493 
	C607.016968,792.247314 608.392822,782.251892 612.024048,772.083679 
	C614.250732,765.848145 616.075745,759.464050 617.929626,753.102478 
	C619.023376,749.349365 620.546021,746.390137 624.150574,744.019531 
	C628.287476,741.298767 630.645569,736.622742 629.378235,731.420654 
	C628.169250,726.458618 626.297424,721.635315 624.431091,716.862854 
	C622.645203,712.295898 620.569641,708.474548 623.055420,702.838623 
	C624.595093,699.347839 621.964661,693.956787 621.017212,689.458557 
	C620.609375,687.522095 619.926819,685.581360 619.020691,683.822083 
	C613.517944,673.137695 612.058594,660.528992 603.485840,651.304321 
	C598.392395,645.823486 592.980530,640.569214 588.477966,634.632019 
	C585.239319,630.361450 583.148071,625.186279 580.846375,620.273438 
	C580.466980,619.463562 581.689880,617.942383 582.086609,616.722107 
	C583.381897,612.738159 584.861145,608.795898 585.852112,604.735718 
	C587.105896,599.598816 587.959778,594.363708 588.968262,589.167542 
	C590.306335,582.273438 590.212402,575.794861 583.880737,571.015442 
	C583.120728,570.441772 582.700378,569.417969 581.824585,568.113892 
	C581.293213,567.414429 581.063599,567.200073 580.837646,566.981812 
	C580.837646,566.981812 581.034973,566.975769 580.801880,566.898376 
	C580.249695,566.590515 579.930664,566.360046 579.611572,566.129578 
	C579.611572,566.129578 579.947693,566.136902 579.710815,566.051147 
	C574.865967,565.580750 570.261841,564.947876 565.648926,564.874817 
	C559.958679,564.784729 554.261047,565.160583 548.566650,565.335144 
	C548.566650,565.335144 548.755554,565.201965 548.655884,565.051514 
	C548.315491,564.588501 548.074707,564.275879 547.833923,563.963257 
	C547.833923,563.963257 547.983948,564.044128 547.934326,563.828613 
	C547.455750,562.993530 547.026794,562.374084 546.597778,561.754578 
	C546.474182,561.436157 546.350647,561.117676 546.294678,560.056641 
	C545.827332,558.310974 545.292542,557.307861 544.757690,556.304749 
	C544.757690,556.304749 544.660217,556.275452 544.647461,555.929321 
	C544.381714,555.047302 544.128723,554.511353 543.875732,553.975403 
	C543.875732,553.975403 543.999268,553.978455 543.819031,553.854980 
	C543.363708,553.530518 543.088684,553.329590 542.813599,553.128601 
	C542.813599,553.128601 542.934570,553.087097 542.798523,552.942505 
	C542.426941,552.552490 542.191406,552.307068 541.955872,552.061707 
	C541.689880,551.864563 541.423828,551.667358 540.907410,551.083374 
	C540.475037,550.479797 540.266296,550.292847 540.030762,550.135742 
	C540.030762,550.135742 539.858765,550.082153 539.720337,549.702209 
	C537.876038,548.388123 536.152283,546.623840 534.467224,546.660095 
	C526.116638,546.839478 517.770996,547.425476 509.438507,548.062988 
	C508.329224,548.147949 507.304932,549.343689 506.241272,550.025024 
	C506.241302,550.025024 505.953796,550.294067 505.443726,550.332764 
	C504.258087,550.864746 503.582520,551.358032 502.906982,551.851318 
	C502.906952,551.851318 502.653839,552.111572 502.163086,552.207458 
	C501.110992,552.592773 500.549652,552.882202 499.988312,553.171570 
	C499.988312,553.171570 500.161224,553.091919 499.792114,553.149963 
	C495.275818,554.509705 491.128632,555.811462 486.981445,557.113159 
	C486.981445,557.113159 487.182770,556.967896 486.931030,557.150269 
	C486.150055,557.734009 485.620789,558.135254 485.091522,558.536560 
	C485.091522,558.536560 484.930817,558.224915 484.906677,558.302734 
	C484.615387,558.560669 484.360077,558.756287 484.116638,558.967346 
	C484.116638,558.967346 483.933960,559.166321 483.535553,559.145386 
	C482.640259,559.448547 482.143372,559.772705 481.646484,560.096924 
	C476.219849,563.643982 471.081085,564.546875 464.435089,561.920227 
	C457.019531,558.989441 448.734161,558.015381 440.636810,560.592407 
	C434.526764,562.536926 428.463440,564.652161 422.283081,566.338684 
	C420.200439,566.906982 417.389404,567.179932 415.656036,566.229492 
	C409.306549,562.748108 402.925781,559.144348 397.197754,554.751038 
	C388.686310,548.223022 381.517883,539.874817 371.087982,536.031982 
	C364.700226,533.678406 361.522247,528.638367 361.197601,522.327393 
	C360.809265,514.778748 356.239746,510.119904 351.559357,505.224487 
	C347.913483,501.411163 343.556061,498.450684 340.740417,493.571442 
	C338.965485,490.495728 334.533264,488.953430 330.947144,486.174194 
	C329.897186,485.258423 329.193115,484.891754 328.489044,484.525055 
	C328.489044,484.525055 328.604431,484.235809 328.589661,484.137390 
	C328.404358,483.803497 328.216705,483.582550 328.011902,483.376160 
	C328.011902,483.376160 327.776794,483.114868 327.727295,482.722595 
	C327.441681,481.952545 327.205566,481.574768 326.969482,481.197021 
	C326.969482,481.197021 326.811096,481.134613 326.858704,480.634583 
	C326.908203,474.524017 327.073425,468.905914 326.816223,463.307251 
	C326.735168,461.543060 325.521912,459.830872 324.826904,458.094879 
	C324.561035,456.425812 323.523224,454.354401 324.150513,453.150818 
	C329.552429,442.786102 332.851959,431.938171 332.520020,420.171448 
	C332.446106,417.551392 331.830353,414.943329 331.418823,412.336884 
	C330.954529,409.396576 329.995605,406.456635 330.046387,403.530304 
	C330.129761,398.721527 331.007904,394.095367 326.220062,390.504639 
	C325.027863,389.610474 324.930878,385.978149 325.620331,384.070587 
	C328.883026,375.043823 330.955902,364.911377 336.605743,357.614075 
	C342.199402,350.389343 344.947540,342.325836 349.168976,334.747742 
	C351.848114,329.938385 356.322540,326.159119 359.693726,321.692902 
	C361.418427,319.408051 362.213745,316.421417 363.939667,314.137817 
	C365.323700,312.306641 367.287994,310.119965 369.321747,309.708954 
	C379.044098,307.744446 386.199524,302.267822 391.918396,294.538513 
	C393.694580,292.137848 395.567780,289.737091 396.857422,287.075134 
	C397.636200,285.467651 397.958893,283.193878 397.482117,281.502655 
	C395.691833,275.152496 396.412048,269.787598 399.426727,263.497925 
	C403.806091,254.361038 410.431366,248.319580 418.785767,243.734390 
	C427.313446,239.054108 431.880463,231.830414 434.210022,222.726440 
	C434.748047,220.623932 435.892975,218.676682 437.205017,215.616898 
	C442.836395,226.141708 451.142456,226.355698 460.152496,224.726151 
	C461.736511,224.439682 463.625214,224.338394 465.050720,224.929398 
	C471.940338,227.785751 476.451874,223.781754 481.752258,220.327759 
	C490.661011,214.522339 499.912689,209.028839 509.611542,204.742325 
	C514.319336,202.661636 520.359741,203.430740 525.808716,203.230515 
	C534.329529,202.917435 542.861938,202.709991 551.385986,202.798859 
	C555.042725,202.836975 558.838806,203.263916 562.302368,204.362671 
	C566.019348,205.541855 569.027466,206.531174 573.162537,204.682220 
	C575.984375,203.420425 581.201050,203.804749 583.390198,205.706116 
	C586.684814,208.567551 588.917114,210.023178 592.773804,205.977066 
	C592.981384,206.438614 593.189026,206.900177 593.396667,207.361740 
	C592.919861,208.886765 592.590637,210.478363 591.937988,211.924057 
	C590.148743,215.887848 590.080933,219.362335 593.102661,223.031677 
	C594.139221,224.290390 594.133179,227.707001 593.140015,229.076263 
	C590.839111,232.248459 587.763977,234.908127 584.783630,237.526260 
	C580.880432,240.955139 580.548218,243.634399 584.939148,246.127167 
	C592.118042,250.202652 599.545044,253.914734 607.132385,257.160645 
	C610.171936,258.460968 614.117310,257.539886 617.290833,258.654083 
	C622.847778,260.605072 628.210510,263.183472 633.468079,265.864624 
	C634.893799,266.591736 635.915833,268.505157 636.664551,270.090668 
	C638.843445,274.704742 642.028625,277.230103 647.191650,278.877502 
	C654.867493,281.326660 662.222534,285.106781 669.259766,289.117554 
	C673.919800,291.773499 678.018799,292.140564 682.192566,289.207245 
	C685.960205,286.559326 685.056213,282.552185 684.420410,278.708557 
	C683.683228,274.252167 683.536377,270.110535 686.323181,265.830170 
	C689.729980,260.597382 694.582153,259.487274 699.921143,259.283051 
	C702.665344,259.178101 705.636597,259.738525 708.186096,260.779694 
	C716.596130,264.214020 724.863281,267.998901 733.177429,271.667053 
	C734.070923,272.061249 734.864746,272.741974 735.786011,273.003571 
	C748.366455,276.576050 760.917358,280.271667 773.591736,283.477295 
	C775.958130,284.075806 778.854858,282.745544 781.461365,282.116760 
	C782.182678,281.942749 782.817932,281.157745 783.361023,280.537720 
	C791.343445,271.424561 796.117554,273.035980 807.487488,277.771973 
	C814.329468,280.621948 821.283691,281.893890 827.824707,280.575531 
	C831.785339,279.777283 835.761536,274.745209 838.009583,270.666626 
	C842.568054,262.396088 846.199585,253.576828 849.679199,244.772659 
	C850.708984,242.167236 850.232178,238.828323 849.945068,235.874161 
	C849.554199,231.852386 850.407959,228.493744 852.886597,225.200089 
	C855.148010,222.195160 856.260620,220.680222 861.071411,222.266022 
	C866.537292,224.067780 873.352356,223.493149 879.164673,222.150177 
	C889.488037,219.764923 899.703918,218.057724 910.213501,219.790497 
	C912.307434,220.135727 914.437744,221.489273 916.114319,222.897980 
	C920.545898,226.621262 924.204956,231.610565 929.149048,234.296646 
	C936.707581,238.403152 937.700684,243.932098 936.027039,251.338486 
	C934.177124,259.525177 936.643860,265.332581 943.982544,269.015442 
	C953.929077,274.007019 959.533203,281.793976 960.345581,292.776184 
	C960.504822,294.927582 959.207397,297.514130 957.861572,299.380707 
	C955.142761,303.151581 955.231445,306.030121 958.683838,309.394196 
	C961.090698,311.739410 962.466309,315.106110 964.576965,317.801605 
	C967.102539,321.026947 969.496216,324.594086 972.711853,326.984009 
	C977.430542,330.491150 979.513794,334.852814 980.023315,340.458923 
	C980.602478,346.829834 983.350891,352.312500 987.672424,358.457642 
	C989.451416,352.615875 990.860596,347.988281 992.269836,343.360718 
	C992.968689,343.354126 993.667542,343.347565 994.366394,343.340973 
	C994.703369,346.839569 995.713074,350.429474 995.252747,353.819855 
	C993.808105,364.460449 995.595337,363.285767 1003.789612,367.043976 
	C1003.939697,367.112793 1004.160095,367.236969 1004.258484,367.180328 
	C1009.597656,364.107544 1015.158203,367.167084 1020.543518,366.503204 
	C1022.118469,366.309082 1023.750305,364.826141 1024.937256,363.545654 
	C1029.452759,358.674591 1033.702881,353.555939 1038.265625,348.731476 
	C1039.536377,347.387726 1041.541870,346.738708 1043.210327,345.771027 
	C1043.880615,347.327942 1045.032471,348.851288 1045.143799,350.447113 
	C1045.888916,361.147797 1052.859985,365.777069 1061.986572,368.973297 
	C1065.170776,370.088501 1067.791016,372.883453 1070.571899,375.036469 
	C1071.321655,375.617035 1071.744873,376.638611 1072.269653,377.487671 
	C1074.683472,381.393219 1080.951294,384.053680 1076.762573,390.148224 
	C1073.997803,394.170807 1071.296265,398.436310 1067.722900,401.657135 
	C1062.339722,406.509186 1057.302490,411.013977 1058.692017,419.287567 
	C1058.867432,420.332245 1057.022705,421.880524 1055.883301,422.949646 
	C1052.956543,425.695770 1049.929810,428.338593 1046.878174,430.946655 
	C1045.892334,431.789124 1044.726929,432.963623 1043.605103,433.007904 
	C1039.505493,433.169678 1036.506592,434.669739 1035.116943,438.675934 
	C1033.884155,442.230255 1031.161377,443.145142 1027.726318,443.937134 
	C1021.870178,445.287354 1016.146362,447.297638 1010.487122,449.360413 
	C1008.900330,449.938782 1007.129700,451.408508 1006.474792,452.917084 
	C1002.733582,461.534485 994.811218,464.117767 987.022888,467.023071 
	C983.916321,468.181915 980.668945,469.171478 977.852844,470.852997 
	C973.379456,473.524017 969.080078,476.322540 963.547546,475.788269 
	C963.230957,475.757721 962.876709,475.859924 962.573792,475.983276 
	C952.514465,480.078125 942.394348,484.032837 932.426025,488.338837 
	C925.662415,491.260559 919.598999,488.292694 918.180359,480.859711 
	C916.351990,471.279877 914.609375,461.683594 912.771973,452.105499 
	C912.366455,449.991821 912.130005,447.695343 911.114990,445.873352 
	C904.569092,434.122467 897.892700,422.442352 891.084656,410.841461 
	C890.033142,409.049622 888.294312,407.449738 886.514771,406.332336 
	C877.705994,400.801392 875.864136,392.236511 875.594055,382.752289 
	C875.387878,375.513672 871.793579,369.735413 867.004822,364.530060 
	C863.814209,361.061920 860.360107,357.678253 857.923828,353.705017 
	C851.684570,343.529724 845.952576,333.043518 839.997498,322.693329 
	C839.673767,322.130737 839.164978,321.674561 838.322937,320.748718 
	C837.302368,319.825256 836.701172,319.321899 836.099976,318.818512 
	C836.099976,318.818512 836.100403,318.894470 835.927612,318.532043 
	C834.864014,316.083069 833.314392,314.023804 833.226746,311.904114 
	C833.069092,308.089233 833.787842,304.238098 834.140503,300.402130 
	C833.714355,300.340271 833.288147,300.278442 832.862000,300.216583 
	C831.912720,304.791199 830.872742,309.349396 830.042114,313.945465 
	C829.350952,317.770172 827.526550,318.693634 824.215698,316.655212 
	C824.215698,316.655212 824.211182,316.726349 824.076477,316.428589 
	C821.934265,313.429749 819.926819,310.728668 817.919373,308.027588 
	C816.081055,304.270172 814.242676,300.512787 812.404358,296.755402 
	C812.003601,296.930542 811.602783,297.105682 811.202026,297.280823 
	C812.006042,300.101532 812.469055,303.077484 813.670776,305.717133 
	C820.328003,320.339661 824.373352,336.036957 832.654602,350.032562 
	C836.471802,356.483673 838.349792,364.053680 841.564331,370.901703 
	C843.230469,374.451233 845.427917,378.010590 848.208862,380.720367 
	C853.121948,385.507507 854.728577,391.200012 855.316223,397.722900 
	C855.888794,404.078125 857.067078,410.393951 858.306396,416.662415 
	C858.592529,418.109985 859.966736,419.642212 861.254517,420.543884 
	C870.439575,426.975067 874.660706,436.303497 877.192566,446.774750 
	C878.510132,452.224152 879.284912,457.197144 886.192993,460.135071 
	C892.041626,462.622437 896.262451,469.090118 900.997559,473.995209 
	C904.919067,478.057495 908.557861,482.394257 912.290222,486.637299 
	C918.924011,494.179016 918.914001,494.187836 911.846558,499.573761 
	C917.017883,503.667603 922.189453,507.922668 927.569641,511.895203 
	C928.751770,512.768066 930.675354,512.636719 932.986694,512.964355 
	C934.475281,512.545715 935.234497,512.130615 935.993713,511.715515 
	C935.993713,511.715515 935.869873,511.939240 936.008911,511.761658 
	C936.437317,511.361694 936.726746,511.139313 937.016235,510.916962 
	C937.016235,510.916992 937.006653,511.003357 937.169434,510.862000 
	C937.595154,510.516693 937.820679,510.277466 938.008728,510.002930 
	C938.008728,510.002930 938.002441,510.002441 938.395508,509.955139 
	C939.307922,509.802399 939.827271,509.696991 940.346680,509.591583 
	C940.346680,509.591583 940.213074,509.653290 940.387695,509.933197 
	C945.274963,513.155579 951.805786,512.592834 956.006775,508.882355 
	C956.006775,508.882355 955.960571,508.974976 956.344238,508.960571 
	C959.801575,508.556824 962.936646,508.427277 965.935120,507.719513 
	C970.882263,506.551697 975.741272,505.010345 980.637390,503.626434 
	C980.637390,503.626434 980.675476,503.554138 981.053589,503.633606 
	C982.533752,503.140350 983.635742,502.567627 984.737793,501.994904 
	C984.737793,501.994904 984.869995,501.798187 985.365356,501.793823 
	C994.271667,500.420013 994.507812,500.793274 992.628967,509.056427 
	C991.570251,513.712646 991.056824,518.492859 990.297729,523.217224 
	C990.297729,523.217224 990.211487,523.150085 990.000732,523.349731 
	C989.306274,524.835815 988.822632,526.122192 988.338989,527.408569 
	C988.338989,527.408569 988.244446,527.176514 988.073181,527.355713 
	C985.377380,533.140747 982.852844,538.746643 980.328247,544.352478 
	C980.328247,544.352478 980.162781,544.182739 980.078247,544.353821 
	C979.817688,545.088745 979.641602,545.652588 979.465454,546.216431 
	C979.465515,546.216431 979.461182,546.398682 979.065735,546.520264 
	C977.208557,550.547241 975.746826,554.452637 974.285034,558.358032 
	C974.285034,558.358032 974.159363,558.180603 974.038818,558.301392 
	C973.685791,559.056946 973.453247,559.691833 973.220764,560.326660 
	C973.220764,560.326660 973.067139,560.723633 972.596985,560.963806 
	C971.503357,562.252808 970.879944,563.301697 970.256470,564.350525 
	C970.256470,564.350525 970.178162,564.166382 969.972168,564.314575 
	C969.201355,565.692261 968.636658,566.921753 968.071960,568.151306 
	C968.071960,568.151306 967.999695,568.032654 967.877808,568.221375 
	C967.561462,568.743469 967.366943,569.076843 967.172485,569.410217 
	C967.172424,569.410217 967.119507,569.114685 967.051758,569.315186 
	C966.667664,570.046692 966.351196,570.577698 966.034790,571.108643 
	C966.034790,571.108643 966.008118,571.007812 965.880737,571.160278 
	C965.526489,571.542419 965.334534,571.798218 965.177368,572.080078 
	C964.987305,572.356323 964.797241,572.632568 964.186890,573.200806 
	C963.543945,573.773865 963.321289,574.054810 963.098633,574.335754 
	C963.098572,574.335754 963.170715,574.182800 962.923462,574.307739 
	C961.582581,575.723633 960.488953,577.014526 959.395386,578.305542 
	C959.395447,578.305542 959.403931,578.389587 959.125732,578.499878 
	C958.545898,579.042725 958.244324,579.475342 957.942749,579.907959 
	C957.942688,579.907898 957.967041,579.970276 957.678528,580.100342 
	C956.963806,580.634460 956.537537,581.038452 956.111267,581.442444 
	C956.111267,581.442444 956.081177,581.104797 956.041016,581.304993 
	C955.671753,581.996643 955.342712,582.488037 955.013672,582.979431 
	C955.013611,582.979431 955.024780,583.017761 954.816406,583.173462 
	C954.370911,583.559265 954.163635,583.813721 953.986084,584.092468 
	C953.986084,584.092468 953.991333,583.999451 953.770813,584.138977 
	C953.164368,584.738647 952.778442,585.198730 952.392517,585.658875 
	C952.392517,585.658875 952.097229,585.405579 952.097595,585.528564 
	C951.859497,585.969177 951.621094,586.286865 951.382690,586.604492 
	C951.382690,586.604492 951.088806,586.391602 951.048706,586.502014 
	C950.695984,586.848633 950.383301,587.084839 950.070618,587.321045 
	C950.070618,587.321045 949.984863,587.117676 949.964294,587.332092 
	C949.653198,587.795715 949.362732,588.044983 949.072205,588.294189 
	C949.072205,588.294189 948.998901,588.113464 948.949036,588.316528 
	C948.602905,588.745911 948.306641,588.972229 948.010376,589.198486 
	C948.010376,589.198425 948.039368,589.002991 947.957886,589.240967 
	C947.626038,589.781189 947.375732,590.083374 947.125366,590.385559 
	C947.125366,590.385559 947.112488,590.116943 947.006714,590.270752 
	C946.598633,590.648438 946.296265,590.872314 945.993896,591.096191 
	C945.993835,591.096191 946.150330,590.961975 945.902893,591.145752 
	C945.098206,591.982117 944.541016,592.634827 943.983765,593.287415 
	C941.586060,595.325806 939.418701,597.751648 936.751709,599.336731 
	C924.008179,606.910461 914.917053,618.222656 906.014160,629.581604 
	C902.222961,634.418701 897.819641,638.412476 893.648315,642.762146 
	C884.903931,651.880066 878.353760,662.747131 874.264832,674.844482 
	C872.911743,678.847534 874.764038,682.337524 878.250061,684.156311 
	C881.825928,686.021912 881.381287,688.054077 880.728943,691.402527 
	C878.614075,702.258789 880.169006,712.464722 888.576294,721.209106 
	C889.369507,721.602722 889.671204,721.736938 889.972900,721.871216 
	C889.972900,721.871216 890.021179,722.057129 890.361450,722.344482 
	C891.211304,724.926758 892.112244,727.213074 892.163086,729.518066 
	C892.388184,739.725464 890.289612,749.973267 893.100220,760.147583 
	C893.875244,762.953186 893.705566,766.019714 893.969238,768.966553 
M808.463257,644.283386 
	C811.325256,643.631226 813.984131,641.085083 817.248901,643.757812 
	C817.713379,644.138062 820.676147,642.685486 821.263184,641.484863 
	C823.706299,636.488647 826.012634,631.368042 827.679016,626.075867 
	C828.417236,623.731567 828.116150,620.648621 827.244446,618.285461 
	C824.541748,610.958557 807.285522,612.674927 805.356140,620.372131 
	C804.002563,625.772156 803.011353,631.339478 802.654663,636.883301 
	C802.451660,640.038818 803.477905,643.566956 808.463257,644.283386 
M785.855408,671.888550 
	C784.417847,667.934875 782.980286,663.981140 781.542725,660.027466 
	C780.650330,660.241943 779.757935,660.456421 778.865540,660.670959 
	C779.414001,666.068298 779.740784,671.501343 780.600342,676.848755 
	C781.061035,679.714478 782.300232,682.490784 783.437439,685.202881 
	C784.858154,688.591064 787.062439,691.732361 787.986694,695.229126 
	C789.652405,701.531494 793.802063,706.044006 799.862427,705.927673 
	C798.661804,703.442688 797.621582,701.333679 796.621094,699.206055 
	C795.722229,697.294434 794.781311,695.395691 794.014038,693.430786 
	C793.068115,691.008301 792.556335,688.380981 791.368835,686.095764 
	C789.133301,681.793396 784.929565,678.333862 785.855408,671.888550 
M833.413208,731.064331 
	C831.350037,726.261108 831.650574,720.264709 825.968079,717.043091 
	C825.616516,719.632141 826.037964,722.049927 826.279297,724.485535 
	C826.665588,728.384216 828.117310,732.674133 827.012451,736.124207 
	C824.404785,744.266479 827.690796,750.775330 831.183105,757.366455 
	C831.752136,758.440430 833.979980,758.635437 835.441101,759.236694 
	C835.858643,758.915649 836.276123,758.594666 836.693604,758.273621 
	C830.970703,750.354736 831.273682,741.954163 833.758240,733.362366 
	C833.885071,732.923828 833.645874,732.379456 833.413208,731.064331 
z"/>
<path fill="#E6B931" opacity="1.000000" stroke="none" 
	d="
M945.931519,776.067139 
	C949.195312,773.331970 952.683472,770.817505 955.655273,767.795166 
	C958.237183,765.169373 960.157349,761.905212 962.518188,759.045410 
	C964.069458,757.166321 965.581543,754.656311 967.643250,753.921387 
	C971.977722,752.376343 971.028076,748.706116 972.035339,745.762756 
	C972.580872,744.168579 973.398438,742.667480 974.093262,741.124390 
	C975.531616,742.280762 977.600586,743.150391 978.282593,744.650635 
	C979.911987,748.234497 981.096191,752.062012 982.077759,755.889221 
	C983.519775,761.512146 984.830750,767.187866 985.755493,772.912476 
	C986.031616,774.622131 984.829956,776.570496 984.305481,778.409546 
	C983.772095,778.335266 983.238708,778.261047 982.705322,778.186768 
	C981.634521,776.581238 980.563721,774.975647 979.439270,773.289673 
	C978.672363,773.979736 978.234680,774.201416 978.250366,774.383972 
	C979.388489,787.582581 975.242188,799.691101 970.825745,811.810425 
	C967.586670,820.698853 964.854004,829.771912 961.425049,839.192261 
	C960.034363,842.834167 959.114380,846.046387 958.194397,849.258667 
	C958.194397,849.258667 958.105225,849.056824 957.986511,849.298096 
	C957.697693,850.453552 957.527588,851.367859 957.357544,852.282104 
	C957.357483,852.282104 957.346497,852.196533 957.093628,852.403564 
	C954.982666,857.611877 953.124634,862.613220 951.266602,867.614624 
	C951.266602,867.614624 951.202026,867.906311 950.735107,868.076782 
	C947.627930,869.579224 944.987732,870.911072 942.347534,872.242920 
	C942.347534,872.242920 942.305237,872.384583 941.891235,872.332764 
	C940.448792,872.984558 939.420227,873.688110 938.391724,874.391663 
	C938.391724,874.391663 938.379395,874.457886 937.922363,874.363464 
	C933.911133,873.645142 930.356934,873.021179 926.802673,872.397278 
	C926.802673,872.397278 926.707214,872.411316 926.529114,872.163574 
	C926.085205,871.672424 925.819336,871.429016 925.553528,871.185547 
	C925.553528,871.185547 925.834351,871.313599 925.617188,871.191223 
	C924.943115,870.701721 924.486328,870.334534 924.029480,869.967407 
	C924.029480,869.967407 924.000000,869.997803 923.926514,869.605347 
	C922.211670,857.780029 920.570374,846.347107 918.929077,834.914185 
	C918.929077,834.914185 918.997559,835.000000 919.246094,834.840454 
	C919.857117,833.967712 920.219604,833.254517 920.582092,832.541321 
	C920.582092,832.541321 920.767456,832.721680 920.887573,832.586182 
	C921.325500,831.924927 921.643311,831.399170 921.961060,830.873413 
	C921.961060,830.873413 922.008545,830.981689 922.135315,830.794922 
	C922.459290,830.293640 922.656433,829.979126 922.853577,829.664612 
	C922.853577,829.664612 922.834839,829.867554 923.053467,829.699402 
	C924.054688,827.894653 924.837280,826.258057 925.619812,824.621460 
	C925.619812,824.621460 925.832886,824.720398 926.032104,824.568359 
	C931.459900,815.949158 927.521484,808.088867 924.625671,800.159546 
	C924.518799,799.678406 924.411865,799.197205 924.547119,798.198730 
	C927.159912,792.011780 929.530457,786.342224 931.900940,780.672668 
	C931.900940,780.672668 931.892822,780.844177 932.158325,780.794922 
	C933.607178,780.052246 934.790405,779.358948 935.973633,778.665649 
	C935.973694,778.665649 935.909607,778.828796 936.252991,778.851807 
	C939.407593,778.180542 942.218811,777.486267 945.030029,776.792053 
	C945.030029,776.792053 945.032227,776.966248 945.132568,776.829285 
	C945.487671,776.508301 945.720520,776.299927 945.931519,776.067139 
z"/>
<path fill="#2A4716" opacity="1.000000" stroke="none" 
	d="
M824.382690,316.951965 
	C827.526550,318.693634 829.350952,317.770172 830.042114,313.945465 
	C830.872742,309.349396 831.912720,304.791199 832.862000,300.216583 
	C833.288147,300.278442 833.714355,300.340271 834.140503,300.402130 
	C833.787842,304.238098 833.069092,308.089233 833.226746,311.904114 
	C833.314392,314.023804 834.864014,316.083069 835.965576,318.531403 
	C834.630066,318.100708 833.083862,317.308228 831.537598,316.515717 
	C831.502563,316.955719 831.467468,317.395752 831.432434,317.835754 
	C829.138184,317.640076 826.843994,317.444397 824.382690,316.951965 
z"/>
<path fill="#153805" opacity="1.000000" stroke="none" 
	d="
M894.153931,768.618286 
	C893.705566,766.019714 893.875244,762.953186 893.100220,760.147583 
	C890.289612,749.973267 892.388184,739.725464 892.163086,729.518066 
	C892.112244,727.213074 891.211304,724.926758 890.456665,722.332092 
	C893.917175,723.044800 893.414368,726.055725 893.509583,728.845459 
	C893.874329,739.535095 894.324341,750.221863 894.654114,760.912476 
	C894.729614,763.359375 894.453064,765.817200 894.153931,768.618286 
z"/>
<path fill="#D9C44C" opacity="1.000000" stroke="none" 
	d="
M918.627563,835.145508 
	C920.570374,846.347107 922.211670,857.780029 923.942749,869.592285 
	C922.890320,866.684265 921.513367,863.455750 920.669556,860.093506 
	C919.752625,856.439758 919.084412,852.683167 918.757446,848.932190 
	C918.365356,844.435425 918.448608,839.897156 918.627563,835.145508 
z"/>
<path fill="#D9C753" opacity="1.000000" stroke="none" 
	d="
M990.592041,522.997559 
	C991.056824,518.492859 991.570251,513.712646 992.628967,509.056427 
	C994.507812,500.793274 994.271667,500.420013 985.483154,501.780823 
	C986.723755,501.040894 988.276611,500.038330 989.972473,499.629547 
	C994.945984,498.430725 996.152588,499.912994 994.909119,504.942871 
	C993.446838,510.857880 992.217041,516.830383 990.592041,522.997559 
z"/>
<path fill="#DFCD5A" opacity="1.000000" stroke="none" 
	d="
M506.619232,549.985901 
	C507.304932,549.343689 508.329224,548.147949 509.438507,548.062988 
	C517.770996,547.425476 526.116638,546.839478 534.467224,546.660095 
	C536.152283,546.623840 537.876038,548.388123 539.723450,549.612183 
	C528.902100,544.821472 517.949341,547.172668 506.619232,549.985901 
z"/>
<path fill="#DFCD5A" opacity="1.000000" stroke="none" 
	d="
M548.805054,565.621582 
	C554.261047,565.160583 559.958679,564.784729 565.648926,564.874817 
	C570.261841,564.947876 574.865967,565.580750 579.706787,566.219116 
	C573.022156,566.691101 566.104431,567.071045 559.187378,567.058228 
	C555.805420,567.051941 552.424744,566.314575 548.805054,565.621582 
z"/>
<path fill="#D9C753" opacity="1.000000" stroke="none" 
	d="
M980.242065,503.708496 
	C975.741272,505.010345 970.882263,506.551697 965.935120,507.719513 
	C962.936646,508.427277 959.801575,508.556824 956.297974,508.937378 
	C961.929260,507.621490 967.989990,506.311829 974.052063,505.008636 
	C975.981689,504.593842 977.915039,504.196136 980.242065,503.708496 
z"/>
<path fill="#D9C44C" opacity="1.000000" stroke="none" 
	d="
M924.619873,800.531006 
	C927.521484,808.088867 931.459900,815.949158 925.982544,824.674805 
	C929.590820,816.726013 925.764404,808.876587 924.619873,800.531006 
z"/>
<path fill="#E0CC56" opacity="1.000000" stroke="none" 
	d="
M324.964600,458.494812 
	C325.521912,459.830872 326.735168,461.543060 326.816223,463.307251 
	C327.073425,468.905914 326.908203,474.524017 326.875916,480.551208 
	C326.447571,476.682709 326.011902,472.400604 325.664368,468.111359 
	C325.415833,465.044128 325.285461,461.967285 324.964600,458.494812 
z"/>
<path fill="#D9C44C" opacity="1.000000" stroke="none" 
	d="
M931.561890,780.782532 
	C929.530457,786.342224 927.159912,792.011780 924.590820,797.828369 
	C926.669189,792.281006 928.945984,786.586670 931.561890,780.782532 
z"/>
<path fill="#D9C753" opacity="1.000000" stroke="none" 
	d="
M955.586914,508.963013 
	C951.805786,512.592834 945.274963,513.155579 940.357788,509.865967 
	C945.157898,509.360443 950.162476,509.202057 955.586914,508.963013 
z"/>
<path fill="#D9C753" opacity="1.000000" stroke="none" 
	d="
M980.581726,544.111145 
	C982.852844,538.746643 985.377380,533.140747 988.189514,527.309143 
	C985.929749,532.678894 983.382446,538.274353 980.581726,544.111145 
z"/>
<path fill="#D9C44C" opacity="1.000000" stroke="none" 
	d="
M951.519531,867.362549 
	C953.124634,862.613220 954.982666,857.611877 957.136475,852.399109 
	C955.545654,857.161987 953.659058,862.136230 951.519531,867.362549 
z"/>
<path fill="#2A4716" opacity="1.000000" stroke="none" 
	d="
M817.878784,308.301880 
	C819.926819,310.728668 821.934265,313.429749 824.111084,316.420044 
	C819.834229,315.819092 819.060852,312.019653 817.878784,308.301880 
z"/>
<path fill="#D9C753" opacity="1.000000" stroke="none" 
	d="
M974.572266,558.144287 
	C975.746826,554.452637 977.208557,550.547241 978.978149,546.545471 
	C977.810486,550.276245 976.334961,554.103455 974.572266,558.144287 
z"/>
<path fill="#DFCD5A" opacity="1.000000" stroke="none" 
	d="
M487.395966,557.179932 
	C491.128632,555.811462 495.275818,554.509705 499.831848,553.236450 
	C496.097290,554.592163 491.953888,555.919373 487.395966,557.179932 
z"/>
<path fill="#D9C44C" opacity="1.000000" stroke="none" 
	d="
M927.034363,872.648926 
	C930.356934,873.021179 933.911133,873.645142 937.889038,874.358582 
	C934.077698,877.878296 930.985474,873.150879 927.034363,872.648926 
z"/>
<path fill="#D9C44C" opacity="1.000000" stroke="none" 
	d="
M958.459412,849.016357 
	C959.114380,846.046387 960.034363,842.834167 961.232056,839.549561 
	C960.581299,842.576172 959.652832,845.675049 958.459412,849.016357 
z"/>
<path fill="#D9C44C" opacity="1.000000" stroke="none" 
	d="
M942.713623,872.203125 
	C944.987732,870.911072 947.627930,869.579224 950.613770,868.163940 
	C948.332886,869.441528 945.706238,870.802429 942.713623,872.203125 
z"/>
<path fill="#D9C44C" opacity="1.000000" stroke="none" 
	d="
M944.598877,776.772888 
	C942.218811,777.486267 939.407593,778.180542 936.171631,778.819275 
	C938.553833,778.093689 941.360779,777.423706 944.598877,776.772888 
z"/>
<path fill="#D9C44C" opacity="1.000000" stroke="none" 
	d="
M925.357910,824.831543 
	C924.837280,826.258057 924.054688,827.894653 922.952026,829.689453 
	C923.453369,828.245667 924.274719,826.643616 925.357910,824.831543 
z"/>
<path fill="#D9C753" opacity="1.000000" stroke="none" 
	d="
M959.660889,578.150635 
	C960.488953,577.014526 961.582581,575.723633 962.999634,574.344421 
	C962.190857,575.502747 961.058594,576.749268 959.660889,578.150635 
z"/>
<path fill="#D9C44C" opacity="1.000000" stroke="none" 
	d="
M935.613159,778.686890 
	C934.790405,779.358948 933.607178,780.052246 932.072632,780.790283 
	C932.898499,780.126038 934.075623,779.417114 935.613159,778.686890 
z"/>
<path fill="#D9C44C" opacity="1.000000" stroke="none" 
	d="
M938.684326,874.296143 
	C939.420227,873.688110 940.448792,872.984558 941.820068,872.312927 
	C941.100891,872.963501 940.038940,873.582031 938.684326,874.296143 
z"/>
<path fill="#D9C753" opacity="1.000000" stroke="none" 
	d="
M968.340332,567.946594 
	C968.636658,566.921753 969.201355,565.692261 970.064453,564.276001 
	C969.778076,565.306763 969.193420,566.524292 968.340332,567.946594 
z"/>
<path fill="#D9C753" opacity="1.000000" stroke="none" 
	d="
M970.517090,564.186157 
	C970.879944,563.301697 971.503357,562.252808 972.420776,561.083130 
	C972.068970,561.982117 971.423279,563.001953 970.517090,564.186157 
z"/>
<path fill="#D9C753" opacity="1.000000" stroke="none" 
	d="
M988.606201,527.182495 
	C988.822632,526.122192 989.306274,524.835815 990.034668,523.307007 
	C989.810730,524.361816 989.342041,525.659119 988.606201,527.182495 
z"/>
<path fill="#DFCD5A" opacity="1.000000" stroke="none" 
	d="
M546.617554,561.963745 
	C547.026794,562.374084 547.455750,562.993530 547.893799,563.903564 
	C547.481018,563.520325 547.059143,562.846680 546.617554,561.963745 
z"/>
<path fill="#D9C753" opacity="1.000000" stroke="none" 
	d="
M984.433838,502.024567 
	C983.635742,502.567627 982.533752,503.140350 981.090454,503.651367 
	C981.876099,503.077881 983.002991,502.566040 984.433838,502.024567 
z"/>
<path fill="#DFCD5A" opacity="1.000000" stroke="none" 
	d="
M544.825195,556.603149 
	C545.292542,557.307861 545.827332,558.310974 546.251892,559.546143 
	C545.725281,558.819336 545.308960,557.860413 544.825195,556.603149 
z"/>
<path fill="#2A4716" opacity="1.000000" stroke="none" 
	d="
M836.208923,319.103394 
	C836.701172,319.321899 837.302368,319.825256 838.012573,320.605316 
	C837.520325,320.384094 836.919067,319.886169 836.208923,319.103394 
z"/>
<path fill="#D9C44C" opacity="1.000000" stroke="none" 
	d="
M920.359009,832.739563 
	C920.219604,833.254517 919.857117,833.967712 919.208984,834.799561 
	C919.327454,834.258118 919.731689,833.597961 920.359009,832.739563 
z"/>
<path fill="#D9C753" opacity="1.000000" stroke="none" 
	d="
M944.277466,593.151306 
	C944.541016,592.634827 945.098206,591.982117 945.970093,591.223877 
	C945.713562,591.750549 945.142395,592.382812 944.277466,593.151306 
z"/>
<path fill="#DFCD5A" opacity="1.000000" stroke="none" 
	d="
M481.870422,560.088623 
	C482.143372,559.772705 482.640259,559.448547 483.401367,559.130127 
	C483.141846,559.450684 482.618134,559.765503 481.870422,560.088623 
z"/>
<path fill="#E0CC56" opacity="1.000000" stroke="none" 
	d="
M328.643311,484.789764 
	C329.193115,484.891754 329.897186,485.258423 330.741089,485.901428 
	C330.186493,485.803314 329.492035,485.428894 328.643311,484.789764 
z"/>
<path fill="#D9C44C" opacity="1.000000" stroke="none" 
	d="
M957.559875,851.999451 
	C957.527588,851.367859 957.697693,850.453552 958.087524,849.253845 
	C958.125610,849.884521 957.943909,850.800659 957.559875,851.999451 
z"/>
<path fill="#D9C753" opacity="1.000000" stroke="none" 
	d="
M973.429321,560.187866 
	C973.453247,559.691833 973.685791,559.056946 974.127808,558.238892 
	C974.104187,558.720215 973.870972,559.384644 973.429321,560.187866 
z"/>
<path fill="#D9C753" opacity="1.000000" stroke="none" 
	d="
M935.674133,511.788208 
	C935.234497,512.130615 934.475281,512.545715 933.385986,513.003235 
	C933.822144,512.650757 934.588318,512.255798 935.674133,511.788208 
z"/>
<path fill="#DFCD5A" opacity="1.000000" stroke="none" 
	d="
M503.216003,551.777344 
	C503.582520,551.358032 504.258087,550.864746 505.250824,550.372192 
	C504.886993,550.816406 504.206024,551.259888 503.216003,551.777344 
z"/>
<path fill="#DFCD5A" opacity="1.000000" stroke="none" 
	d="
M500.327698,553.287231 
	C500.549652,552.882202 501.110992,552.592773 501.985596,552.245361 
	C501.754944,552.592590 501.211029,552.997803 500.327698,553.287231 
z"/>
<path fill="#E0CC56" opacity="1.000000" stroke="none" 
	d="
M326.987122,481.427917 
	C327.205566,481.574768 327.441681,481.952545 327.703461,482.548462 
	C327.487671,482.397339 327.246216,482.028076 326.987122,481.427917 
z"/>
<path fill="#D9C44C" opacity="1.000000" stroke="none" 
	d="
M924.133301,870.250244 
	C924.486328,870.334534 924.943115,870.701721 925.552429,871.331299 
	C925.215637,871.240234 924.726379,870.886597 924.133301,870.250244 
z"/>
<path fill="#D9C753" opacity="1.000000" stroke="none" 
	d="
M940.125366,509.415405 
	C939.827271,509.696991 939.307922,509.802399 938.394775,509.958099 
	C938.635376,509.751984 939.269653,509.495605 940.125366,509.415405 
z"/>
<path fill="#D9C44C" opacity="1.000000" stroke="none" 
	d="
M921.684692,831.034790 
	C921.643311,831.399170 921.325500,831.924927 920.796936,832.678406 
	C920.860291,832.336121 921.134338,831.766174 921.684692,831.034790 
z"/>
<path fill="#D9C753" opacity="1.000000" stroke="none" 
	d="
M979.667236,545.992310 
	C979.641602,545.652588 979.817688,545.088745 980.163452,544.271423 
	C980.178345,544.601379 980.023682,545.184814 979.667236,545.992310 
z"/>
<path fill="#DFCD5A" opacity="1.000000" stroke="none" 
	d="
M485.426025,558.460938 
	C485.620789,558.135254 486.150055,557.734009 487.003784,557.250854 
	C486.805664,557.574524 486.283081,557.979919 485.426025,558.460938 
z"/>
<path fill="#D9C753" opacity="1.000000" stroke="none" 
	d="
M966.314087,570.947510 
	C966.351196,570.577698 966.667664,570.046692 967.199646,569.289185 
	C967.141235,569.637268 966.867310,570.211853 966.314087,570.947510 
z"/>
<path fill="#DFCD5A" opacity="1.000000" stroke="none" 
	d="
M543.846375,554.285828 
	C544.128723,554.511353 544.381714,555.047302 544.660889,555.880249 
	C544.397095,555.650269 544.107056,555.123291 543.846375,554.285828 
z"/>
<path fill="#D9C753" opacity="1.000000" stroke="none" 
	d="
M958.186157,579.792725 
	C958.244324,579.475342 958.545898,579.042725 959.083862,578.505615 
	C959.023315,578.826538 958.726379,579.252014 958.186157,579.792725 
z"/>
<path fill="#D9C753" opacity="1.000000" stroke="none" 
	d="
M952.669128,585.518005 
	C952.778442,585.198730 953.164368,584.738647 953.817322,584.141479 
	C953.704834,584.462036 953.325256,584.919556 952.669128,585.518005 
z"/>
<path fill="#D9C753" opacity="1.000000" stroke="none" 
	d="
M956.411011,581.363892 
	C956.537537,581.038452 956.963806,580.634460 957.647095,580.088867 
	C957.506287,580.393311 957.108459,580.839294 956.411011,581.363892 
z"/>
<path fill="#D9C753" opacity="1.000000" stroke="none" 
	d="
M955.276123,582.822693 
	C955.342712,582.488037 955.671753,581.996643 956.209839,581.290283 
	C956.125427,581.605652 955.831970,582.135803 955.276123,582.822693 
z"/>
<path fill="#DFCD5A" opacity="1.000000" stroke="none" 
	d="
M580.919434,567.221069 
	C581.063599,567.200073 581.293213,567.414429 581.683960,567.796875 
	C581.561401,567.799377 581.281311,567.629883 580.919434,567.221069 
z"/>
<path fill="#D9C753" opacity="1.000000" stroke="none" 
	d="
M950.415405,587.295227 
	C950.383301,587.084839 950.695984,586.848633 951.155273,586.355103 
	C951.121338,586.488342 950.940735,586.878906 950.415405,587.295227 
z"/>
<path fill="#D9C753" opacity="1.000000" stroke="none" 
	d="
M967.451416,569.265869 
	C967.366943,569.076843 967.561462,568.743469 967.937195,568.185364 
	C967.989075,568.347595 967.859741,568.734558 967.451416,569.265869 
z"/>
<path fill="#D9C44C" opacity="1.000000" stroke="none" 
	d="
M925.640991,871.463013 
	C925.819336,871.429016 926.085205,871.672424 926.520691,872.116089 
	C926.369751,872.124329 926.049133,871.932373 925.640991,871.463013 
z"/>
<path fill="#E0CC56" opacity="1.000000" stroke="none" 
	d="
M328.050110,483.623230 
	C328.216705,483.582550 328.404358,483.803497 328.734192,484.195282 
	C328.625153,484.191132 328.356750,484.030701 328.050110,483.623230 
z"/>
<path fill="#D9C753" opacity="1.000000" stroke="none" 
	d="
M965.408081,571.974854 
	C965.334534,571.798218 965.526489,571.542419 965.931152,571.147095 
	C965.952332,571.277527 965.795593,571.573547 965.408081,571.974854 
z"/>
<path fill="#D9C753" opacity="1.000000" stroke="none" 
	d="
M963.354004,574.212402 
	C963.321289,574.054810 963.543945,573.773865 963.953613,573.304321 
	C963.963623,573.440247 963.786499,573.764709 963.354004,574.212402 
z"/>
<path fill="#DFCD5A" opacity="1.000000" stroke="none" 
	d="
M547.880310,564.283325 
	C548.074707,564.275879 548.315491,564.588501 548.721924,565.146362 
	C548.567322,565.128845 548.247009,564.866150 547.880310,564.283325 
z"/>
<path fill="#D9C44C" opacity="1.000000" stroke="none" 
	d="
M922.598816,829.812500 
	C922.656433,829.979126 922.459290,830.293640 922.081299,830.818787 
	C922.048340,830.673096 922.196167,830.316711 922.598816,829.812500 
z"/>
<path fill="#D9C753" opacity="1.000000" stroke="none" 
	d="
M937.756714,510.081665 
	C937.820679,510.277466 937.595154,510.516693 937.126221,510.857300 
	C937.115112,510.716095 937.309937,510.438232 937.756714,510.081665 
z"/>
<path fill="#D9C753" opacity="1.000000" stroke="none" 
	d="
M936.723633,510.947021 
	C936.726746,511.139313 936.437317,511.361694 935.897095,511.699493 
	C935.907898,511.535645 936.169495,511.256409 936.723633,510.947021 
z"/>
<path fill="#DFCD5A" opacity="1.000000" stroke="none" 
	d="
M484.395752,558.935608 
	C484.360077,558.756287 484.615387,558.560669 485.062500,558.222473 
	C485.053284,558.344238 484.864044,558.624023 484.395752,558.935608 
z"/>
<path fill="#D9C753" opacity="1.000000" stroke="none" 
	d="
M954.219666,583.982178 
	C954.163635,583.813721 954.370911,583.559265 954.796509,583.171265 
	C954.807800,583.299561 954.630554,583.585693 954.219666,583.982178 
z"/>
<path fill="#D9C44C" opacity="1.000000" stroke="none" 
	d="
M945.673096,776.125183 
	C945.720520,776.299927 945.487671,776.508301 945.045471,776.830200 
	C945.043518,776.706421 945.229065,776.444824 945.673096,776.125183 
z"/>
<path fill="#DFCD5A" opacity="1.000000" stroke="none" 
	d="
M540.090271,550.356934 
	C540.266296,550.292847 540.475037,550.479797 540.786987,550.863037 
	C540.583191,551.011536 540.327454,550.861145 540.090271,550.356934 
z"/>
<path fill="#153805" opacity="1.000000" stroke="none" 
	d="
M889.771545,721.735535 
	C889.671204,721.736938 889.369507,721.602722 888.908691,721.273926 
	C889.019226,721.258850 889.292786,721.432312 889.771545,721.735535 
z"/>
<path fill="#DFCD5A" opacity="1.000000" stroke="none" 
	d="
M579.753174,566.412598 
	C579.930664,566.360046 580.249695,566.590515 580.805054,566.997070 
	C580.659180,567.013916 580.276978,566.854797 579.753174,566.412598 
z"/>
<path fill="#DFCD5A" opacity="1.000000" stroke="none" 
	d="
M542.038269,552.318481 
	C542.191406,552.307068 542.426941,552.552490 542.818970,553.003052 
	C542.690552,552.997314 542.405640,552.786255 542.038269,552.318481 
z"/>
<path fill="#DFCD5A" opacity="1.000000" stroke="none" 
	d="
M542.931213,553.382935 
	C543.088684,553.329590 543.363708,553.530518 543.817627,553.916748 
	C543.680603,553.947144 543.364685,553.792175 542.931213,553.382935 
z"/>
<path fill="#D9C753" opacity="1.000000" stroke="none" 
	d="
M951.669434,586.444336 
	C951.621094,586.286865 951.859497,585.969177 952.224365,585.381042 
	C952.219238,585.501709 952.087708,585.892944 951.669434,586.444336 
z"/>
<path fill="#D9C753" opacity="1.000000" stroke="none" 
	d="
M946.307007,591.085693 
	C946.296265,590.872314 946.598633,590.648438 947.141052,590.264771 
	C947.127441,590.428406 946.873779,590.751770 946.307007,591.085693 
z"/>
<path fill="#D9C753" opacity="1.000000" stroke="none" 
	d="
M947.420410,590.254333 
	C947.375732,590.083374 947.626038,589.781189 948.055542,589.255615 
	C948.061584,589.395935 947.888489,589.759521 947.420410,590.254333 
z"/>
<path fill="#D9C753" opacity="1.000000" stroke="none" 
	d="
M948.352783,589.194824 
	C948.306641,588.972229 948.602905,588.745911 949.039429,588.280029 
	C949.018127,588.423950 948.856628,588.807556 948.352783,589.194824 
z"/>
<path fill="#D9C753" opacity="1.000000" stroke="none" 
	d="
M949.417236,588.260803 
	C949.362732,588.044983 949.653198,587.795715 950.066040,587.289307 
	C950.046326,587.430603 949.904358,587.828979 949.417236,588.260803 
z"/>
<path fill="#184D20" opacity="1.000000" stroke="none" 
	d="
M808.121338,644.214478 
	C803.477905,643.566956 802.451660,640.038818 802.654663,636.883301 
	C803.011353,631.339478 804.002563,625.772156 805.356140,620.372131 
	C807.285522,612.674927 824.541748,610.958557 827.244446,618.285461 
	C828.116150,620.648621 828.417236,623.731567 827.679016,626.075867 
	C826.012634,631.368042 823.706299,636.488647 821.263184,641.484863 
	C820.676147,642.685486 817.713379,644.138062 817.248901,643.757812 
	C813.984131,641.085083 811.325256,643.631226 808.121338,644.214478 
z"/>
<path fill="#18481D" opacity="1.000000" stroke="none" 
	d="
M785.915039,672.301392 
	C784.929565,678.333862 789.133301,681.793396 791.368835,686.095764 
	C792.556335,688.380981 793.068115,691.008301 794.014038,693.430786 
	C794.781311,695.395691 795.722229,697.294434 796.621094,699.206055 
	C797.621582,701.333679 798.661804,703.442688 799.862427,705.927673 
	C793.802063,706.044006 789.652405,701.531494 787.986694,695.229126 
	C787.062439,691.732361 784.858154,688.591064 783.437439,685.202881 
	C782.300232,682.490784 781.061035,679.714478 780.600342,676.848755 
	C779.740784,671.501343 779.414001,666.068298 778.865540,660.670959 
	C779.757935,660.456421 780.650330,660.241943 781.542725,660.027466 
	C782.980286,663.981140 784.417847,667.934875 785.915039,672.301392 
z"/>
<path fill="#1C491C" opacity="1.000000" stroke="none" 
	d="
M833.495117,731.474365 
	C833.645874,732.379456 833.885071,732.923828 833.758240,733.362366 
	C831.273682,741.954163 830.970703,750.354736 836.693604,758.273621 
	C836.276123,758.594666 835.858643,758.915649 835.441101,759.236694 
	C833.979980,758.635437 831.752136,758.440430 831.183105,757.366455 
	C827.690796,750.775330 824.404785,744.266479 827.012451,736.124207 
	C828.117310,732.674133 826.665588,728.384216 826.279297,724.485535 
	C826.037964,722.049927 825.616516,719.632141 825.968079,717.043091 
	C831.650574,720.264709 831.350037,726.261108 833.495117,731.474365 
z"/>
</svg>