<svg version="1.1" id="Layer_1" xmlns="http://www.w3.org/2000/svg" xmlns:xlink="http://www.w3.org/1999/xlink" x="0px" y="0px"
	 width="100%" viewBox="0 0 1536 1024" enable-background="new 0 0 1536 1024" xml:space="preserve">
<path fill="#079745" opacity="1.000000" stroke="none" 
	d="
M819.000000,1025.000000 
	C546.000000,1025.000000 273.500000,1025.000000 1.000000,1025.000000 
	C1.000000,683.666687 1.000000,342.333344 1.000000,1.000000 
	C513.000000,1.000000 1025.000000,1.000000 1537.000000,1.000000 
	C1537.000000,342.333344 1537.000000,683.666687 1537.000000,1025.000000 
	C1297.833374,1025.000000 1058.666626,1025.000000 819.000000,1025.000000 
M1225.528931,553.920105 
	C1225.733643,553.626648 1225.938354,553.333191 1226.572021,552.947021 
	C1226.872925,552.826233 1227.046753,552.605408 1227.686523,552.115601 
	C1228.158813,551.762939 1228.630981,551.410278 1229.041382,551.030701 
	C1229.041382,551.030701 1229.057373,551.096130 1229.748535,550.924072 
	C1230.718018,549.432556 1231.726685,547.964783 1232.647339,546.443726 
	C1233.888428,544.392944 1235.061768,542.301147 1236.193481,540.221313 
	C1236.193481,540.221313 1236.203491,540.291626 1236.911499,540.137329 
	C1238.629395,539.439209 1240.347290,538.741028 1242.023682,538.005554 
	C1242.023682,538.005554 1242.041870,538.058105 1242.737793,537.962158 
	C1244.821289,534.748169 1247.994995,531.770081 1248.752319,528.269226 
	C1250.155273,521.783630 1253.169189,517.091919 1258.876099,513.933899 
	C1259.704224,513.475708 1260.339722,512.669678 1261.541748,511.863739 
	C1261.713257,511.584534 1261.884766,511.305298 1262.530640,510.858734 
	C1262.690918,510.575714 1262.851196,510.292694 1263.559814,509.721558 
	C1263.796509,509.149750 1264.033203,508.577972 1264.115967,508.049225 
	C1264.115967,508.049225 1264.160034,508.202728 1264.739380,507.863983 
	C1271.148560,501.956238 1275.558838,494.966339 1277.382935,485.862854 
	C1270.817261,485.856720 1268.227783,482.257660 1266.389160,477.341156 
	C1265.586426,475.194824 1263.927124,472.640778 1261.986572,471.775696 
	C1254.166260,468.289581 1246.188110,465.079803 1238.068604,462.364868 
	C1230.480713,459.827667 1228.473999,456.893097 1228.754395,448.733276 
	C1228.942871,443.251740 1228.463623,437.604492 1224.813354,432.608582 
	C1223.742676,433.284851 1222.944214,433.592316 1222.414795,434.153595 
	C1215.795654,441.171021 1209.275635,448.282715 1202.606812,455.252197 
	C1196.998657,461.113159 1189.994385,462.299866 1182.229126,461.182709 
	C1178.171021,460.598907 1173.962158,460.061066 1169.930298,460.501190 
	C1160.690308,461.509827 1156.203369,458.048462 1156.058838,448.690674 
	C1156.010376,445.562500 1157.157715,442.343445 1156.716675,439.317719 
	C1156.391724,437.087677 1154.374146,435.104340 1153.110718,433.011047 
	C1151.757935,434.758026 1149.649658,436.333649 1149.206665,438.287018 
	C1148.224854,442.615326 1148.078979,447.133301 1147.581421,451.673340 
	C1146.701782,450.230103 1145.949585,448.996246 1145.138916,447.769348 
	C1145.138916,447.769348 1145.194946,447.754211 1145.121704,447.028839 
	C1143.482056,444.206055 1141.760376,441.427094 1140.221558,438.550415 
	C1137.836182,434.091431 1134.546997,429.777313 1133.565918,425.005981 
	C1132.676147,420.678070 1130.725464,418.105042 1127.758179,415.283539 
	C1123.494751,411.229797 1119.091187,406.957642 1116.182617,401.945740 
	C1113.169067,396.752991 1111.923462,390.545441 1109.765869,384.834137 
	C1109.385376,383.827209 1108.493042,382.749207 1107.549072,382.262451 
	C1101.187744,378.982330 1100.881714,378.173096 1103.972900,372.669495 
	C1105.222900,373.453949 1106.436646,374.215607 1107.650391,374.977264 
	C1108.114502,373.472351 1109.174438,371.848450 1108.903198,370.490509 
	C1108.497925,368.462158 1107.511475,366.307434 1106.146484,364.757782 
	C1101.614258,359.612549 1097.523804,354.434906 1097.638550,347.015198 
	C1097.663940,345.370209 1096.416382,343.682281 1095.667969,342.054047 
	C1094.530151,339.578461 1093.316528,337.137756 1092.240112,334.900360 
	C1089.250000,333.500854 1086.054565,332.243835 1083.102783,330.559784 
	C1079.853760,328.705902 1076.978760,326.173859 1073.677368,324.438416 
	C1064.363281,319.542389 1059.441406,305.704437 1065.497803,298.624084 
	C1069.328003,294.146240 1069.457642,289.558716 1069.573364,285.948090 
	C1065.403564,283.172058 1062.280640,280.393860 1058.635864,278.838074 
	C1053.739258,276.747955 1051.985962,273.170624 1051.665527,268.369202 
	C1051.437134,264.949768 1049.611816,263.086090 1046.807373,261.008759 
	C1043.075195,258.244171 1040.195068,261.015808 1037.023071,261.125275 
	C1026.626587,261.484039 1015.763916,260.692657 1005.978088,263.487030 
	C991.355347,267.662567 976.882629,268.227753 961.948181,268.376587 
	C954.596985,268.449890 945.062927,266.372375 940.574158,275.441132 
	C938.256958,275.154510 936.093262,274.886902 933.929626,274.619263 
	C934.010559,276.944946 934.136780,279.270172 934.160400,281.596436 
	C934.187988,284.312683 934.255066,287.039154 934.059692,289.743469 
	C933.919189,291.687103 932.857544,293.671173 933.104797,295.516876 
	C934.077942,302.780518 933.294922,309.307556 927.325134,314.452942 
	C926.454834,315.203125 926.363708,316.865540 925.929443,318.111938 
	C923.265869,325.756805 921.251526,333.714325 917.756042,340.957245 
	C914.601074,347.494568 909.914001,353.516510 901.950439,354.924683 
	C894.196960,356.295715 886.419922,356.935242 879.315247,352.128571 
	C878.161377,351.347931 876.480408,351.358032 875.052246,350.969177 
	C864.428406,348.076569 854.773499,352.120361 845.019592,355.239410 
	C837.036377,357.792145 828.656128,360.942535 820.890076,356.521240 
	C812.234070,351.593201 803.024109,350.998352 793.672180,349.837006 
	C787.803467,349.108215 781.307190,348.921600 776.391724,346.170319 
	C770.229309,342.721100 764.023987,341.140076 757.314636,339.831940 
	C752.277893,338.849884 746.436951,337.400360 742.968628,334.064392 
	C738.020264,329.304901 732.842346,327.172913 726.368958,326.554413 
	C716.928894,325.652466 708.611145,327.913300 701.511475,334.312561 
	C695.233337,339.971405 695.335632,346.989258 696.814209,354.539612 
	C697.840637,359.780823 691.634766,366.841125 686.810730,365.760956 
	C682.188171,364.725861 676.882935,363.590302 673.558167,360.618683 
	C668.047241,355.693207 661.402344,354.992889 655.036072,353.078613 
	C651.569458,352.036255 647.704529,352.193146 644.350403,350.929810 
	C638.142395,348.591644 630.669189,347.760742 629.338440,338.781464 
	C629.002747,336.516022 626.221436,333.909271 623.916260,332.771057 
	C616.924622,329.318695 609.665222,326.508087 601.536072,326.971497 
	C592.487061,327.487305 584.270691,324.958374 576.482117,320.203522 
	C572.066345,317.507721 566.995850,315.825348 562.111816,313.972260 
	C557.433044,312.196960 556.097107,307.099213 559.698792,303.778748 
	C561.288330,302.313324 563.059082,301.034424 564.571472,299.497528 
	C567.633606,296.385742 570.575562,293.155792 573.275574,290.284485 
	C571.046204,287.620911 569.600281,285.672577 567.922729,283.949799 
	C566.163452,282.143066 564.028687,280.692596 562.333313,278.835114 
	C559.756409,276.011871 560.799744,273.456665 564.218506,271.806244 
	C565.812866,271.036499 566.706909,268.816040 567.918396,267.253143 
	C566.419495,266.470856 564.929565,265.670593 563.418823,264.911804 
	C562.156677,264.277832 560.454712,264.020874 559.668823,263.026703 
	C556.791565,259.386932 553.462097,259.645447 549.432800,260.671234 
	C543.699524,262.130798 537.834045,263.298157 531.955322,263.860565 
	C529.157043,264.128296 526.191345,262.149536 523.312683,262.182159 
	C518.356567,262.238220 513.516418,261.322845 508.422852,264.188232 
	C504.886871,266.177399 499.488647,264.765991 494.933716,265.052979 
	C485.825897,265.626770 476.730286,266.792542 467.621735,266.878479 
	C443.744629,267.103729 422.035278,274.377350 401.711578,286.337219 
	C395.762115,289.838287 389.755035,291.485046 382.777771,290.626801 
	C377.376495,289.962402 371.755341,289.792358 366.379547,290.509430 
	C357.744812,291.661163 355.048248,290.823853 350.180389,283.469727 
	C349.443909,282.357056 347.980988,280.776398 347.120575,280.927734 
	C345.968964,281.130219 344.813354,282.661438 344.118958,283.883270 
	C340.770142,289.775482 337.898956,295.967987 334.187408,301.612762 
	C332.385040,304.354065 329.357056,306.538605 326.461334,308.267456 
	C315.721771,314.679413 303.166748,318.462219 295.581390,329.371063 
	C293.315460,332.629822 291.794281,336.421143 290.062927,340.031311 
	C289.013397,342.219727 288.740540,345.011902 287.199524,346.687317 
	C283.498077,350.711609 283.386383,354.634033 285.428284,359.457611 
	C288.021240,365.582886 286.141754,371.745636 281.314789,376.125549 
	C277.375153,379.700287 273.829315,383.733612 269.726562,387.097290 
	C265.417847,390.629822 260.974152,394.271271 256.010376,396.663605 
	C249.438583,399.830902 242.304459,401.831451 235.026093,404.473511 
	C237.415161,408.252014 241.525406,408.825134 245.603607,408.951843 
	C260.089417,409.401825 274.580719,409.864044 289.070557,409.883514 
	C293.649261,409.889679 297.395325,411.055939 301.126282,413.521637 
	C340.223206,439.359222 379.427185,465.035309 418.448853,490.985687 
	C424.048401,494.709534 429.367889,498.665985 434.283295,503.799927 
	C441.105988,510.925964 451.447906,514.655212 460.181458,520.004761 
	C461.718201,520.946106 463.048981,522.537964 463.936432,524.129578 
	C464.703003,525.504333 464.817963,527.291809 465.021759,528.921753 
	C465.631439,533.797974 468.548523,534.708496 472.788879,533.713074 
	C475.042603,533.184021 477.343842,532.584473 479.635010,532.534058 
	C491.592865,532.271118 502.398499,527.716003 510.958954,520.300232 
	C530.049377,503.762451 550.752991,489.767975 572.473083,477.108490 
	C576.053162,475.021820 579.581848,472.520294 583.476807,471.364166 
	C593.566956,468.369110 603.678711,466.485138 612.681702,474.809875 
	C616.875793,478.687927 621.649780,479.165100 627.102051,476.288513 
	C631.730652,473.846497 636.945068,472.469910 641.979370,470.871002 
	C643.366028,470.430695 645.294800,470.371368 646.538635,471.000122 
	C682.822937,489.342529 719.065979,507.767120 755.234619,526.336243 
	C756.574280,527.024048 757.777710,529.244446 757.892517,530.833923 
	C758.420105,538.136658 758.678772,545.467346 758.769104,552.791199 
	C758.899902,563.400208 758.802612,574.012024 758.802612,584.594604 
	C753.083252,584.249878 746.797241,582.107788 741.590149,589.221191 
	C738.545715,593.380188 737.638550,598.576782 733.925659,602.162048 
	C733.754456,602.327332 733.924194,602.811523 733.868713,603.135803 
	C732.762146,609.598267 733.954224,616.644348 728.805542,622.103882 
	C728.142517,622.807068 728.519287,624.547058 728.523193,625.806396 
	C728.526611,626.921204 729.196411,628.436157 728.689453,629.087524 
	C724.175720,634.887207 729.149780,635.574036 732.794373,636.788574 
	C738.722473,638.763916 740.081848,640.885803 739.383179,646.916992 
	C738.831482,651.679993 737.897705,656.650513 743.749756,659.345032 
	C744.703674,659.784241 745.052307,661.484741 745.741821,662.563110 
	C746.882690,664.347473 747.693054,666.649414 749.310364,667.768372 
	C755.489685,672.043884 756.777710,678.764038 751.520752,684.239929 
	C748.766541,687.108826 750.070740,689.144592 752.307739,690.140137 
	C755.674011,691.638000 759.471863,692.695190 763.139404,692.879150 
	C771.295471,693.288208 773.344604,694.441528 775.512451,701.923767 
	C775.865479,703.142273 775.386353,704.636414 775.845154,705.781372 
	C776.479065,707.363281 777.305176,709.388245 778.638062,710.067566 
	C781.999207,711.780640 786.044678,712.307678 789.137329,714.341797 
	C791.637329,715.986023 794.715149,719.101929 794.766174,721.621094 
	C794.866760,726.587402 797.416382,728.410706 801.032654,730.499084 
	C804.760498,732.651978 808.310120,735.483887 807.998474,740.533264 
	C807.338135,751.234131 812.678711,756.041870 823.296692,754.278625 
	C824.677124,754.049316 826.178040,754.674683 827.627380,754.706055 
	C830.946655,754.778076 834.268677,754.727539 837.589539,754.727112 
	C838.787598,754.726929 840.348267,754.242432 841.117004,754.817078 
	C843.624390,756.691345 845.761780,759.052002 848.197815,761.033325 
	C850.191345,762.654846 850.096069,766.906311 854.749329,765.394897 
	C857.514771,764.496582 860.866638,765.480530 863.954529,765.472961 
	C866.287720,765.467224 868.793274,764.624756 870.915710,765.229553 
	C874.802368,766.337219 878.166138,766.875732 881.649414,764.023315 
	C882.825745,763.059998 885.251770,762.821655 886.817322,763.267700 
	C895.625549,765.777588 901.386597,761.917664 907.221985,755.624512 
	C912.868103,749.535522 918.117737,745.884277 925.291809,748.330688 
	C931.803650,750.551270 933.893860,748.863403 933.864441,741.353760 
	C932.792603,741.260742 931.458130,740.717468 930.609680,741.143066 
	C926.235413,743.336853 924.065063,740.632935 922.217102,737.494690 
	C921.227234,735.813538 920.731689,733.839600 920.026794,731.992615 
	C914.836426,718.392334 907.363403,707.138733 891.795044,703.890869 
	C890.455750,703.611450 889.395081,701.996277 888.204956,701.001526 
	C889.376770,699.719177 890.320923,697.895142 891.774902,697.283997 
	C893.853455,696.410339 896.293213,696.251953 898.599670,696.093933 
	C903.606750,695.750854 906.053894,692.762695 906.774536,688.211731 
	C907.978699,680.607605 908.879211,672.955078 910.112732,665.356201 
	C910.278503,664.335144 911.493652,662.921692 912.464966,662.685486 
	C918.788696,661.147766 920.430115,656.583801 921.097839,650.853455 
	C921.719177,645.521118 923.343994,640.596985 928.397461,637.356201 
	C930.228271,636.182007 931.391907,633.785217 932.530640,631.761047 
	C933.902100,629.323242 934.401917,626.209167 936.209412,624.243164 
	C939.459106,620.708679 941.161560,616.955933 941.128540,612.162231 
	C941.108337,609.238342 941.315857,606.189514 942.134460,603.406677 
	C944.490723,595.396851 947.718018,587.613220 949.622498,579.510254 
	C951.109741,573.182739 954.263977,568.678162 959.551880,565.305969 
	C963.472046,562.805969 967.541504,560.476562 971.169250,557.598206 
	C975.188660,554.408997 974.849854,551.695801 970.521729,549.042969 
	C968.547852,547.833130 966.356628,546.984070 964.318237,545.872009 
	C957.374146,542.083618 952.014587,537.326965 953.182739,528.303528 
	C953.409912,526.548828 952.742065,524.686523 952.546204,522.867432 
	C951.675720,514.782776 950.448364,506.712158 950.096924,498.604095 
	C949.843384,492.753448 947.626526,489.364197 942.373718,486.562500 
	C938.067383,484.265625 932.901794,480.659698 931.475403,476.486237 
	C928.428711,467.572174 922.949097,460.158752 919.141663,451.836060 
	C916.305908,445.637512 914.975525,438.699249 913.383728,431.993317 
	C910.081909,418.083130 902.122681,406.763794 893.301575,396.057922 
	C887.107422,388.540192 883.110840,380.297211 881.275269,371.018799 
	C888.605774,378.944214 892.499573,389.171814 899.418518,397.572174 
	C903.413757,402.422699 905.720032,408.253754 913.142944,408.277344 
	C914.796509,408.282593 916.450134,408.278137 916.919128,408.278137 
	C918.344360,401.192657 919.599243,394.954285 920.854126,388.715942 
	C921.374756,388.786591 921.895386,388.857208 922.416016,388.927856 
	C922.416016,394.439697 922.416016,399.951538 922.416016,405.686249 
	C928.115601,406.500092 932.409119,409.638031 933.762085,415.270966 
	C936.098877,424.999969 942.415039,432.274902 947.943054,440.049805 
	C947.943054,440.049805 947.886414,440.074097 948.029480,440.774078 
	C950.263489,447.128571 956.696899,451.746613 955.764038,459.473419 
	C955.709290,459.926727 957.217285,460.568726 958.345642,461.688599 
	C960.880188,463.172363 963.414734,464.656128 966.234314,466.694214 
	C967.453064,467.810547 968.671814,468.926910 970.109924,470.681396 
	C971.019470,472.183197 971.929016,473.685028 972.849426,475.095917 
	C972.849426,475.095917 972.758301,475.086609 972.908569,475.857819 
	C975.286865,485.906525 977.584290,495.975616 980.108643,505.987549 
	C980.641602,508.101196 982.005737,510.005280 983.129639,512.494324 
	C983.408752,512.670532 983.687866,512.846741 984.208923,513.561951 
	C984.696777,513.893921 985.184631,514.225952 985.744629,514.307922 
	C985.744629,514.307922 985.493713,514.238586 985.789368,514.795410 
	C986.146912,515.002380 986.504395,515.209351 987.327881,515.891541 
	C990.121826,517.971863 992.915833,520.052185 995.950439,522.647095 
	C996.274414,522.833801 996.598328,523.020447 997.196167,523.746155 
	C998.131470,524.499207 999.066833,525.252197 1000.161682,526.480713 
	C1000.432068,526.665100 1000.702454,526.849487 1001.000000,527.000305 
	C1001.000000,527.000305 1000.969055,527.028320 1001.117126,527.528076 
	C1001.398926,527.718811 1001.680664,527.909485 1002.075867,528.537720 
	C1002.182861,528.850342 1002.396240,529.048218 1002.857300,529.697327 
	C1003.198059,530.143433 1003.538757,530.589600 1003.999817,531.605835 
	C1004.327148,532.073669 1004.654541,532.541504 1005.064392,533.737915 
	C1006.175110,536.620117 1007.285828,539.502258 1008.528503,542.408875 
	C1008.528503,542.408875 1008.397034,542.435547 1008.605225,543.039978 
	C1009.045166,543.727234 1009.485168,544.414490 1009.972839,545.034180 
	C1009.972839,545.034180 1009.897888,545.069031 1010.033020,545.688660 
	C1010.642761,546.518372 1011.252563,547.348145 1011.883789,548.107666 
	C1011.883789,548.107666 1011.813110,548.127441 1011.990295,548.731750 
	C1012.615845,549.545898 1013.241455,550.360046 1013.889099,551.104919 
	C1013.889099,551.104919 1013.818481,551.122314 1013.986084,551.721130 
	C1014.644043,552.493896 1015.302002,553.266663 1016.000000,554.000000 
	C1016.000000,554.000000 1015.958130,554.038391 1016.090393,554.567261 
	C1016.369385,554.787231 1016.648315,555.007202 1016.923157,555.086487 
	C1016.923157,555.086487 1016.782532,555.091553 1016.926819,555.589294 
	C1017.284668,555.933350 1017.642517,556.277344 1018.539978,557.067322 
	C1019.820862,558.708679 1021.101685,560.350037 1022.587158,562.542236 
	C1023.376953,563.393372 1024.166870,564.244507 1025.060059,565.539978 
	C1025.189819,565.848633 1025.419800,566.030396 1025.932251,566.661621 
	C1026.220215,566.910583 1026.508057,567.159546 1026.555542,567.227905 
	C1026.555542,567.227905 1026.375854,567.469116 1026.662720,567.970459 
	C1026.968750,568.453430 1027.274902,568.936401 1027.572144,569.319275 
	C1027.572144,569.319275 1027.472534,569.332275 1027.802612,570.090332 
	C1028.229736,572.004517 1028.787842,573.900269 1029.060547,575.836243 
	C1030.018066,582.633850 1030.877319,589.445374 1031.795288,596.108215 
	C1031.795288,596.108215 1031.651611,596.088867 1031.820435,596.881287 
	C1032.816528,600.285889 1033.812622,603.690491 1034.936890,607.734253 
	C1035.046875,608.152588 1035.156738,608.570984 1035.369873,609.755127 
	C1036.310425,614.485901 1037.250977,619.216614 1038.062744,624.626282 
	C1038.099854,625.083862 1038.137085,625.541443 1038.059082,626.749207 
	C1039.999878,627.618164 1041.940552,628.487183 1043.986816,629.744019 
	C1044.137695,629.995728 1044.359741,630.128723 1045.190063,630.738464 
	C1046.781616,630.775635 1048.373169,630.812744 1050.648804,630.972107 
	C1051.105957,630.917175 1051.562988,630.862244 1052.743530,630.859070 
	C1054.960083,630.095215 1057.176758,629.331360 1059.406738,628.573425 
	C1059.406738,628.573425 1059.415161,628.594360 1060.065063,628.292053 
	C1062.093018,627.230103 1064.120850,626.168152 1066.046387,625.068604 
	C1066.046387,625.068604 1066.009277,625.171326 1066.599487,625.042786 
	C1066.896484,624.791687 1067.193481,624.540649 1067.301270,624.393188 
	C1067.301270,624.393188 1067.407715,624.580811 1067.927612,624.303711 
	C1068.334106,623.901917 1068.740479,623.500183 1069.047729,623.072937 
	C1069.047729,623.072937 1069.022827,623.172302 1069.609985,623.029053 
	C1069.900391,622.768677 1070.190796,622.508362 1070.281982,622.328064 
	C1070.281982,622.328064 1070.364990,622.526001 1070.927979,622.270691 
	C1071.766846,621.689392 1072.605713,621.108154 1073.181519,620.189270 
	C1073.181519,620.189270 1073.417969,620.546021 1073.996216,620.284058 
	C1075.128662,619.718506 1076.260986,619.152893 1077.004883,618.104858 
	C1077.134399,618.267944 1077.263794,618.431091 1078.138428,618.268188 
	C1081.432007,617.513794 1084.725464,616.759399 1088.604736,615.978821 
	C1089.090088,615.716187 1089.575562,615.453613 1090.809082,615.093567 
	C1093.203613,614.064026 1095.598022,613.034485 1098.000366,612.004883 
	C1098.000366,612.004883 1098.005371,611.998169 1098.741821,611.880371 
	C1101.970093,611.001831 1105.208984,610.159973 1108.422974,609.232178 
	C1110.677002,608.581604 1112.897217,607.813477 1115.040527,607.060547 
	C1115.040527,607.060547 1115.003906,607.152649 1115.593506,607.015320 
	C1115.888672,606.761169 1116.183960,606.507080 1116.242798,606.315735 
	C1116.242798,606.315735 1116.308472,606.551331 1116.853394,606.306946 
	C1117.257812,605.897949 1117.662354,605.488892 1118.009766,605.011963 
	C1118.009766,605.011963 1118.077637,605.069153 1118.684448,604.956665 
	C1119.590088,604.476318 1120.495728,603.995911 1121.334717,603.485596 
	C1121.334717,603.485596 1121.313721,603.555603 1121.876343,603.325928 
	C1122.312744,602.935059 1122.749023,602.544189 1123.090332,602.142517 
	C1123.090332,602.142517 1123.080811,602.237671 1123.665527,602.091553 
	C1124.117188,601.736755 1124.568848,601.381958 1125.000000,601.000000 
	C1125.000000,601.000000 1125.025879,601.023560 1125.544434,600.885925 
	C1125.747314,600.599243 1125.950195,600.312561 1126.065674,600.033752 
	C1126.065674,600.033752 1126.074097,600.121277 1126.652710,599.925903 
	C1127.424438,599.277954 1128.196167,598.630005 1128.993774,598.007141 
	C1128.993774,598.007141 1128.986206,597.973206 1129.733154,597.771606 
	C1133.544800,596.851685 1137.376221,596.006287 1141.163452,594.994751 
	C1147.139648,593.398315 1153.086304,591.690308 1159.015259,589.992310 
	C1159.015259,589.992310 1159.021851,590.039185 1159.770142,590.033569 
	C1164.479004,588.617676 1163.862549,584.651306 1164.038086,581.036560 
	C1164.038086,581.036560 1164.080078,581.051453 1164.589722,580.744202 
	C1164.904053,580.232971 1165.218506,579.721680 1165.247070,579.202759 
	C1165.247070,579.202759 1165.241821,579.488831 1165.808960,579.221924 
	C1166.044067,578.884644 1166.279175,578.547363 1166.238159,578.191284 
	C1166.238159,578.191284 1166.221802,578.467590 1166.759399,578.182922 
	C1166.924194,577.818542 1167.088989,577.454163 1167.671265,576.909546 
	C1167.902588,576.687744 1168.024780,576.416809 1168.519287,575.887268 
	C1168.710571,575.602539 1168.901855,575.317810 1169.552734,574.899109 
	C1169.850220,574.721924 1170.016724,574.461182 1170.598022,573.916870 
	C1170.819092,573.615479 1171.040283,573.314087 1170.996094,572.982422 
	C1170.996094,572.982422 1170.965332,573.247559 1171.694702,573.147400 
	C1172.317749,572.797485 1172.940918,572.447571 1173.814331,572.184937 
	C1173.814331,572.184937 1173.995117,571.991028 1174.818970,572.008057 
	C1186.455566,569.917542 1198.092163,567.827026 1209.666138,565.747742 
	C1210.513428,557.571533 1213.027832,555.645569 1220.944580,556.541504 
	C1221.906250,556.650330 1223.003784,555.558105 1223.997925,555.000305 
	C1223.997925,555.000305 1224.017700,555.042175 1224.518433,554.864563 
	C1224.712280,554.577454 1224.906006,554.290344 1225.008179,554.005310 
	C1225.008179,554.005310 1225.010742,554.096741 1225.528931,553.920105 
z"/>
<path fill="#FBD509" opacity="1.000000" stroke="none" 
	d="
M947.908447,440.100891 
	C942.415039,432.274902 936.098877,424.999969 933.762085,415.270966 
	C932.409119,409.638031 928.115601,406.500092 922.416016,405.686249 
	C922.416016,399.951538 922.416016,394.439697 922.416016,388.927856 
	C921.895386,388.857208 921.374756,388.786591 920.854126,388.715942 
	C919.599243,394.954285 918.344360,401.192657 916.919128,408.278137 
	C916.450134,408.278137 914.796509,408.282593 913.142944,408.277344 
	C905.720032,408.253754 903.413757,402.422699 899.418518,397.572174 
	C892.499573,389.171814 888.605774,378.944214 881.275269,371.018799 
	C883.110840,380.297211 887.107422,388.540192 893.301575,396.057922 
	C902.122681,406.763794 910.081909,418.083130 913.383728,431.993317 
	C914.975525,438.699249 916.305908,445.637512 919.141663,451.836060 
	C922.949097,460.158752 928.428711,467.572174 931.475403,476.486237 
	C932.901794,480.659698 938.067383,484.265625 942.373718,486.562500 
	C947.626526,489.364197 949.843384,492.753448 950.096924,498.604095 
	C950.448364,506.712158 951.675720,514.782776 952.546204,522.867432 
	C952.742065,524.686523 953.409912,526.548828 953.182739,528.303528 
	C952.014587,537.326965 957.374146,542.083618 964.318237,545.872009 
	C966.356628,546.984070 968.547852,547.833130 970.521729,549.042969 
	C974.849854,551.695801 975.188660,554.408997 971.169250,557.598206 
	C967.541504,560.476562 963.472046,562.805969 959.551880,565.305969 
	C954.263977,568.678162 951.109741,573.182739 949.622498,579.510254 
	C947.718018,587.613220 944.490723,595.396851 942.134460,603.406677 
	C941.315857,606.189514 941.108337,609.238342 941.128540,612.162231 
	C941.161560,616.955933 939.459106,620.708679 936.209412,624.243164 
	C934.401917,626.209167 933.902100,629.323242 932.530640,631.761047 
	C931.391907,633.785217 930.228271,636.182007 928.397461,637.356201 
	C923.343994,640.596985 921.719177,645.521118 921.097839,650.853455 
	C920.430115,656.583801 918.788696,661.147766 912.464966,662.685486 
	C911.493652,662.921692 910.278503,664.335144 910.112732,665.356201 
	C908.879211,672.955078 907.978699,680.607605 906.774536,688.211731 
	C906.053894,692.762695 903.606750,695.750854 898.599670,696.093933 
	C896.293213,696.251953 893.853455,696.410339 891.774902,697.283997 
	C890.320923,697.895142 889.376770,699.719177 888.204956,701.001587 
	C889.395081,701.996277 890.455750,703.611450 891.795044,703.890869 
	C907.363403,707.138733 914.836426,718.392334 920.026794,731.992615 
	C920.731689,733.839600 921.227234,735.813538 922.217102,737.494690 
	C924.065063,740.632935 926.235413,743.336853 930.609680,741.143066 
	C931.458130,740.717468 932.792603,741.260742 933.864441,741.353760 
	C933.893860,748.863403 931.803650,750.551270 925.291809,748.330688 
	C918.117737,745.884277 912.868103,749.535522 907.221985,755.624512 
	C901.386597,761.917664 895.625549,765.777588 886.817322,763.267700 
	C885.251770,762.821655 882.825745,763.059998 881.649414,764.023315 
	C878.166138,766.875732 874.802368,766.337219 870.915710,765.229553 
	C868.793274,764.624756 866.287720,765.467224 863.954529,765.472961 
	C860.866638,765.480530 857.514771,764.496582 854.749329,765.394897 
	C850.096069,766.906311 850.191345,762.654846 848.197815,761.033325 
	C845.761780,759.052002 843.624390,756.691345 841.117004,754.817078 
	C840.348267,754.242432 838.787598,754.726929 837.589539,754.727112 
	C834.268677,754.727539 830.946655,754.778076 827.627380,754.706055 
	C826.178040,754.674683 824.677124,754.049316 823.296692,754.278625 
	C812.678711,756.041870 807.338135,751.234131 807.998474,740.533264 
	C808.310120,735.483887 804.760498,732.651978 801.032654,730.499084 
	C797.416382,728.410706 794.866760,726.587402 794.766174,721.621094 
	C794.715149,719.101929 791.637329,715.986023 789.137329,714.341797 
	C786.044678,712.307678 781.999207,711.780640 778.638062,710.067566 
	C777.305176,709.388245 776.479065,707.363281 775.845154,705.781372 
	C775.386353,704.636414 775.865479,703.142273 775.512451,701.923767 
	C773.344604,694.441528 771.295471,693.288208 763.139404,692.879150 
	C759.471863,692.695190 755.674011,691.638000 752.307739,690.140137 
	C750.070740,689.144592 748.766541,687.108826 751.520752,684.239929 
	C756.777710,678.764038 755.489685,672.043884 749.310364,667.768372 
	C747.693054,666.649414 746.882690,664.347473 745.741821,662.563110 
	C745.052307,661.484741 744.703674,659.784241 743.749756,659.345032 
	C737.897705,656.650513 738.831482,651.679993 739.383179,646.916992 
	C740.081848,640.885803 738.722473,638.763916 732.794373,636.788574 
	C729.149780,635.574036 724.175720,634.887207 728.689453,629.087524 
	C729.196411,628.436157 728.526611,626.921204 728.523193,625.806396 
	C728.519287,624.547058 728.142517,622.807068 728.805542,622.103882 
	C733.954224,616.644348 732.762146,609.598267 733.868713,603.135803 
	C733.924194,602.811523 733.754456,602.327332 733.925659,602.162048 
	C737.638550,598.576782 738.545715,593.380188 741.590149,589.221191 
	C746.797241,582.107788 753.083252,584.249878 758.802612,584.594604 
	C758.802612,574.012024 758.899902,563.400208 758.769104,552.791199 
	C758.678772,545.467346 758.420105,538.136658 757.892517,530.833923 
	C757.777710,529.244446 756.574280,527.024048 755.234619,526.336243 
	C719.065979,507.767120 682.822937,489.342529 646.538635,471.000122 
	C645.294800,470.371368 643.366028,470.430695 641.979370,470.871002 
	C636.945068,472.469910 631.730652,473.846497 627.102051,476.288513 
	C621.649780,479.165100 616.875793,478.687927 612.681702,474.809875 
	C603.678711,466.485138 593.566956,468.369110 583.476807,471.364166 
	C579.581848,472.520294 576.053162,475.021820 572.473083,477.108490 
	C550.752991,489.767975 530.049377,503.762451 510.958954,520.300232 
	C502.398499,527.716003 491.592865,532.271118 479.635010,532.534058 
	C477.343842,532.584473 475.042603,533.184021 472.788879,533.713074 
	C468.548523,534.708496 465.631439,533.797974 465.021759,528.921753 
	C464.817963,527.291809 464.703003,525.504333 463.936432,524.129578 
	C463.048981,522.537964 461.718201,520.946106 460.181458,520.004761 
	C451.447906,514.655212 441.105988,510.925964 434.283295,503.799927 
	C429.367889,498.665985 424.048401,494.709534 418.448853,490.985687 
	C379.427185,465.035309 340.223206,439.359222 301.126282,413.521637 
	C297.395325,411.055939 293.649261,409.889679 289.070557,409.883514 
	C274.580719,409.864044 260.089417,409.401825 245.603607,408.951843 
	C241.525406,408.825134 237.415161,408.252014 235.026093,404.473511 
	C242.304459,401.831451 249.438583,399.830902 256.010376,396.663605 
	C260.974152,394.271271 265.417847,390.629822 269.726562,387.097290 
	C273.829315,383.733612 277.375153,379.700287 281.314789,376.125549 
	C286.141754,371.745636 288.021240,365.582886 285.428284,359.457611 
	C283.386383,354.634033 283.498077,350.711609 287.199524,346.687317 
	C288.740540,345.011902 289.013397,342.219727 290.062927,340.031311 
	C291.794281,336.421143 293.315460,332.629822 295.581390,329.371063 
	C303.166748,318.462219 315.721771,314.679413 326.461334,308.267456 
	C329.357056,306.538605 332.385040,304.354065 334.187408,301.612762 
	C337.898956,295.967987 340.770142,289.775482 344.118958,283.883270 
	C344.813354,282.661438 345.968964,281.130219 347.120575,280.927734 
	C347.980988,280.776398 349.443909,282.357056 350.180389,283.469727 
	C355.048248,290.823853 357.744812,291.661163 366.379547,290.509430 
	C371.755341,289.792358 377.376495,289.962402 382.777771,290.626801 
	C389.755035,291.485046 395.762115,289.838287 401.711578,286.337219 
	C422.035278,274.377350 443.744629,267.103729 467.621735,266.878479 
	C476.730286,266.792542 485.825897,265.626770 494.933716,265.052979 
	C499.488647,264.765991 504.886871,266.177399 508.422852,264.188232 
	C513.516418,261.322845 518.356567,262.238220 523.312683,262.182159 
	C526.191345,262.149536 529.157043,264.128296 531.955322,263.860565 
	C537.834045,263.298157 543.699524,262.130798 549.432800,260.671234 
	C553.462097,259.645447 556.791565,259.386932 559.668823,263.026703 
	C560.454712,264.020874 562.156677,264.277832 563.418823,264.911804 
	C564.929565,265.670593 566.419495,266.470856 567.918396,267.253143 
	C566.706909,268.816040 565.812866,271.036499 564.218506,271.806244 
	C560.799744,273.456665 559.756409,276.011871 562.333313,278.835114 
	C564.028687,280.692596 566.163452,282.143066 567.922729,283.949799 
	C569.600281,285.672577 571.046204,287.620911 573.275574,290.284485 
	C570.575562,293.155792 567.633606,296.385742 564.571472,299.497528 
	C563.059082,301.034424 561.288330,302.313324 559.698792,303.778748 
	C556.097107,307.099213 557.433044,312.196960 562.111816,313.972260 
	C566.995850,315.825348 572.066345,317.507721 576.482117,320.203522 
	C584.270691,324.958374 592.487061,327.487305 601.536072,326.971497 
	C609.665222,326.508087 616.924622,329.318695 623.916260,332.771057 
	C626.221436,333.909271 629.002747,336.516022 629.338440,338.781464 
	C630.669189,347.760742 638.142395,348.591644 644.350403,350.929810 
	C647.704529,352.193146 651.569458,352.036255 655.036072,353.078613 
	C661.402344,354.992889 668.047241,355.693207 673.558167,360.618683 
	C676.882935,363.590302 682.188171,364.725861 686.810730,365.760956 
	C691.634766,366.841125 697.840637,359.780823 696.814209,354.539612 
	C695.335632,346.989258 695.233337,339.971405 701.511475,334.312561 
	C708.611145,327.913300 716.928894,325.652466 726.368958,326.554413 
	C732.842346,327.172913 738.020264,329.304901 742.968628,334.064392 
	C746.436951,337.400360 752.277893,338.849884 757.314636,339.831940 
	C764.023987,341.140076 770.229309,342.721100 776.391724,346.170319 
	C781.307190,348.921600 787.803467,349.108215 793.672180,349.837006 
	C803.024109,350.998352 812.234070,351.593201 820.890076,356.521240 
	C828.656128,360.942535 837.036377,357.792145 845.019592,355.239410 
	C854.773499,352.120361 864.428406,348.076569 875.052246,350.969177 
	C876.480408,351.358032 878.161377,351.347931 879.315247,352.128571 
	C886.419922,356.935242 894.196960,356.295715 901.950439,354.924683 
	C909.914001,353.516510 914.601074,347.494568 917.756042,340.957245 
	C921.251526,333.714325 923.265869,325.756805 925.929443,318.111938 
	C926.363708,316.865540 926.454834,315.203125 927.325134,314.452942 
	C933.294922,309.307556 934.077942,302.780518 933.104797,295.516876 
	C932.857544,293.671173 933.919189,291.687103 934.059692,289.743469 
	C934.255066,287.039154 934.187988,284.312683 934.160400,281.596436 
	C934.136780,279.270172 934.010559,276.944946 933.929626,274.619263 
	C936.093262,274.886902 938.256958,275.154510 940.574158,275.441132 
	C945.062927,266.372375 954.596985,268.449890 961.948181,268.376587 
	C976.882629,268.227753 991.355347,267.662567 1005.978088,263.487030 
	C1015.763916,260.692657 1026.626587,261.484039 1037.023071,261.125275 
	C1040.195068,261.015808 1043.075195,258.244171 1046.807373,261.008759 
	C1049.611816,263.086090 1051.437134,264.949768 1051.665527,268.369202 
	C1051.985962,273.170624 1053.739258,276.747955 1058.635864,278.838074 
	C1062.280640,280.393860 1065.403564,283.172058 1069.573364,285.948090 
	C1069.457642,289.558716 1069.328003,294.146240 1065.497803,298.624084 
	C1059.441406,305.704437 1064.363281,319.542389 1073.677368,324.438416 
	C1076.978760,326.173859 1079.853760,328.705902 1083.102783,330.559784 
	C1086.054565,332.243835 1089.250000,333.500854 1092.240112,334.900360 
	C1093.316528,337.137756 1094.530151,339.578461 1095.667969,342.054047 
	C1096.416382,343.682281 1097.663940,345.370209 1097.638550,347.015198 
	C1097.523804,354.434906 1101.614258,359.612549 1106.146484,364.757782 
	C1107.511475,366.307434 1108.497925,368.462158 1108.903198,370.490509 
	C1109.174438,371.848450 1108.114502,373.472351 1107.650391,374.977234 
	C1106.436646,374.215607 1105.222900,373.453949 1103.972900,372.669495 
	C1100.881714,378.173096 1101.187744,378.982330 1107.549072,382.262451 
	C1108.493042,382.749207 1109.385376,383.827209 1109.765869,384.834137 
	C1111.923462,390.545441 1113.169067,396.752991 1116.182617,401.945740 
	C1119.091187,406.957642 1123.494751,411.229797 1127.758179,415.283539 
	C1130.725464,418.105042 1132.676147,420.678070 1133.565918,425.005981 
	C1134.546997,429.777313 1137.836182,434.091431 1140.221558,438.550415 
	C1141.760376,441.427094 1143.482056,444.206055 1144.798218,447.466949 
	C1140.313721,450.122742 1137.868164,449.386078 1136.656494,444.340363 
	C1135.993408,441.579285 1134.004517,439.052612 1132.285767,436.655151 
	C1130.878906,434.692810 1129.237793,434.799194 1128.193115,437.233765 
	C1127.769409,438.221344 1127.374023,439.221130 1126.686646,440.894745 
	C1124.969849,438.809814 1123.700073,437.267883 1122.401245,435.690735 
	C1120.845093,437.325165 1122.749634,442.941650 1117.787109,439.324249 
	C1112.931763,435.784973 1106.353394,437.520630 1104.047607,443.037903 
	C1103.686646,443.901581 1103.033325,444.643036 1103.061523,444.599457 
	C1101.509888,441.404724 1100.780762,436.778473 1098.314087,435.497070 
	C1093.652222,433.075348 1087.819580,431.095245 1082.792358,431.678711 
	C1077.342651,432.311188 1074.822266,430.333771 1072.246216,426.644257 
	C1071.693237,425.852234 1070.781372,424.571228 1070.196167,424.654144 
	C1063.494507,425.603394 1057.116333,423.560028 1050.591797,422.957062 
	C1046.617676,422.589813 1042.478760,424.007874 1038.413818,424.623993 
	C1038.557983,424.138306 1038.702148,423.652618 1038.846313,423.166931 
	C1037.193726,422.137024 1035.478149,420.153595 1033.900269,420.257538 
	C1029.327759,420.558807 1024.835693,422.118530 1020.264771,422.391296 
	C1015.678162,422.665039 1010.058350,426.752441 1006.774475,419.688690 
	C1006.507385,419.114197 1005.081360,419.005920 1004.165649,418.819244 
	C1001.604858,418.297241 999.029236,417.847778 996.459473,417.369690 
	C996.538696,416.687225 996.617920,416.004761 996.697205,415.322296 
	C992.637695,418.783539 989.189209,418.741699 985.618958,414.830139 
	C984.503967,413.608582 980.642334,412.898712 979.863953,413.708923 
	C976.392761,417.321960 968.881775,416.165161 968.440857,423.343506 
	C968.397705,424.046326 966.727783,424.659729 965.800110,425.295898 
	C961.651611,428.141113 957.782959,425.138062 953.805542,424.665802 
	C951.136780,424.348999 948.568848,423.991211 948.346130,427.707672 
	C948.098938,431.832672 948.046021,435.969330 947.908447,440.100891 
z"/>
<path fill="#FBD50C" opacity="1.000000" stroke="none" 
	d="
M947.925781,440.075348 
	C948.046021,435.969330 948.098938,431.832672 948.346130,427.707672 
	C948.568848,423.991211 951.136780,424.348999 953.805542,424.665802 
	C957.782959,425.138062 961.651611,428.141113 965.800110,425.295898 
	C966.727783,424.659729 968.397705,424.046326 968.440857,423.343506 
	C968.881775,416.165161 976.392761,417.321960 979.863953,413.708923 
	C980.642334,412.898712 984.503967,413.608582 985.618958,414.830139 
	C989.189209,418.741699 992.637695,418.783539 996.697205,415.322296 
	C996.617920,416.004761 996.538696,416.687225 996.459473,417.369690 
	C999.029236,417.847778 1001.604858,418.297241 1004.165649,418.819244 
	C1005.081360,419.005920 1006.507385,419.114197 1006.774475,419.688690 
	C1010.058350,426.752441 1015.678162,422.665039 1020.264771,422.391296 
	C1024.835693,422.118530 1029.327759,420.558807 1033.900269,420.257538 
	C1035.478149,420.153595 1037.193726,422.137024 1038.846313,423.166931 
	C1038.702148,423.652618 1038.557983,424.138306 1038.413818,424.623993 
	C1042.478760,424.007874 1046.617676,422.589813 1050.591797,422.957062 
	C1057.116333,423.560028 1063.494507,425.603394 1070.196167,424.654144 
	C1070.781372,424.571228 1071.693237,425.852234 1072.246216,426.644257 
	C1074.822266,430.333771 1077.342651,432.311188 1082.792358,431.678711 
	C1087.819580,431.095245 1093.652222,433.075348 1098.314087,435.497070 
	C1100.780762,436.778473 1101.509888,441.404724 1103.061523,444.599457 
	C1103.033325,444.643036 1103.686646,443.901581 1104.047607,443.037903 
	C1106.353394,437.520630 1112.931763,435.784973 1117.787109,439.324249 
	C1122.749634,442.941650 1120.845093,437.325165 1122.401245,435.690735 
	C1123.700073,437.267883 1124.969849,438.809814 1126.686646,440.894745 
	C1127.374023,439.221130 1127.769409,438.221344 1128.193115,437.233765 
	C1129.237793,434.799194 1130.878906,434.692810 1132.285767,436.655151 
	C1134.004517,439.052612 1135.993408,441.579285 1136.656494,444.340363 
	C1137.868164,449.386078 1140.313721,450.122742 1144.834839,447.829651 
	C1145.194946,447.754211 1145.138916,447.769348 1145.164062,448.153015 
	C1145.876465,450.144440 1146.353882,452.971802 1147.290161,453.132904 
	C1150.185303,453.631104 1150.720703,455.449097 1151.715088,457.644928 
	C1154.805054,464.467682 1165.963745,467.354919 1171.682739,463.193024 
	C1172.536621,462.571564 1174.492310,462.316193 1175.222412,462.857269 
	C1180.135254,466.498840 1185.635254,465.150726 1191.048706,465.446106 
	C1194.809570,465.651337 1198.463501,467.571045 1202.197754,468.607361 
	C1204.193359,469.161163 1206.332397,470.026917 1208.275879,469.768341 
	C1212.479126,469.209015 1216.635132,465.818512 1220.771118,470.698669 
	C1223.962402,464.100586 1229.460938,466.405487 1234.357910,465.860779 
	C1234.876709,468.274872 1235.282104,470.160645 1235.663818,471.936859 
	C1244.095215,472.675476 1245.483032,473.434784 1251.243164,479.273682 
	C1252.179932,480.223297 1253.904541,480.919312 1255.229614,480.864990 
	C1259.377319,480.694855 1262.256226,482.761597 1263.328247,486.264618 
	C1265.109741,492.085052 1268.501221,497.923248 1264.950195,504.339844 
	C1264.342896,505.437134 1264.406372,506.905670 1264.160034,508.202728 
	C1264.160034,508.202728 1264.115967,508.049225 1263.985962,508.248596 
	C1263.574463,508.968506 1263.292847,509.489075 1263.011353,510.009674 
	C1262.851196,510.292694 1262.690918,510.575714 1262.129150,510.975861 
	C1261.506592,511.403503 1261.285522,511.714020 1261.064331,512.024536 
	C1260.339722,512.669678 1259.704224,513.475708 1258.876099,513.933899 
	C1253.169189,517.091919 1250.155273,521.783630 1248.752319,528.269226 
	C1247.994995,531.770081 1244.821289,534.748169 1242.432007,537.658691 
	C1245.412720,531.680786 1245.008789,525.820679 1241.944702,520.435303 
	C1240.717896,518.279236 1236.796509,517.632568 1235.626709,515.472839 
	C1233.521484,511.586334 1230.757080,512.478027 1228.027100,513.442139 
	C1224.268188,514.769531 1220.600708,516.448792 1217.081909,518.329163 
	C1214.829590,519.532776 1212.107422,520.945190 1211.019165,523.013062 
	C1208.738770,527.346252 1206.128296,528.533997 1203.438477,526.640198 
	C1199.968750,527.679199 1197.743896,528.986877 1195.588257,528.881409 
	C1185.552002,528.390381 1175.328613,528.662537 1166.236816,523.051392 
	C1165.098145,522.348633 1162.831543,522.427612 1161.611206,523.097717 
	C1157.841553,525.168152 1154.491577,526.614441 1151.298340,522.195007 
	C1150.753418,521.440918 1149.181030,521.452332 1148.103394,521.055603 
	C1145.430176,520.071289 1142.768433,519.055542 1140.102173,518.052490 
	C1134.650635,516.678101 1128.603027,518.322510 1123.573242,513.116516 
	C1122.430176,511.933411 1118.100098,512.685181 1115.976685,513.871094 
	C1113.040405,515.510925 1111.119141,516.782410 1109.379028,512.774841 
	C1109.085205,512.098267 1107.822510,511.718079 1106.932373,511.448303 
	C1104.310913,510.653931 1101.557495,510.221405 1099.026978,509.215881 
	C1093.667236,507.086060 1091.187988,507.727570 1087.690552,512.188904 
	C1086.912231,513.181763 1085.390503,513.750061 1084.098389,514.146057 
	C1082.026978,514.780823 1079.861572,515.108643 1077.500000,515.616943 
	C1077.927612,513.775269 1078.575562,510.984680 1079.387085,507.488861 
	C1076.773193,507.315887 1074.386597,507.157959 1071.898926,506.684753 
	C1070.050415,502.970825 1068.329834,504.826752 1066.265625,506.181976 
	C1059.868530,510.381653 1053.351074,514.399109 1046.841553,518.424561 
	C1046.394409,518.701111 1045.627563,518.460693 1045.001953,518.460693 
	C1045.120972,512.890076 1043.465576,509.757477 1039.320312,509.605103 
	C1036.068359,509.485596 1032.478149,510.425079 1029.557007,511.912720 
	C1027.028809,513.200195 1025.441895,516.224426 1023.034241,517.899475 
	C1021.435730,519.011475 1018.829773,519.985535 1017.200073,519.443054 
	C1014.589661,518.574158 1012.415100,516.396240 1009.206970,514.186707 
	C1009.206848,514.185181 1009.327820,512.768188 1008.843750,511.602264 
	C1008.263306,510.204041 1007.406677,508.529602 1006.198242,507.938751 
	C1005.540161,507.617035 1003.608459,509.054657 1002.767090,510.110016 
	C1000.114319,513.437683 1000.216064,518.932556 1003.529663,521.383850 
	C1006.787903,523.794373 1006.477783,526.108948 1004.606262,529.042725 
	C1003.724121,529.081238 1003.220093,529.106262 1002.716125,529.131287 
	C1002.396240,529.048218 1002.182861,528.850342 1001.876465,528.119995 
	C1001.467773,527.449524 1001.231750,527.224915 1000.969055,527.028320 
	C1000.969055,527.028320 1001.000000,527.000305 1000.850952,526.822327 
	C1000.499512,526.397522 1000.266296,526.184448 1000.002136,526.005249 
	C999.066833,525.252197 998.131470,524.499207 996.883057,523.269531 
	C996.283264,522.572815 995.996582,522.352600 995.709839,522.132446 
	C992.915833,520.052185 990.121826,517.971863 986.898254,515.426514 
	C986.143677,514.720459 985.818665,514.479553 985.493713,514.238586 
	C985.493713,514.238586 985.744629,514.307922 985.565796,514.171082 
	C984.913635,513.697144 984.440308,513.360107 983.966980,513.023010 
	C983.687866,512.846741 983.408752,512.670532 983.022827,511.851685 
	C980.847412,501.804871 978.936279,492.361511 976.613892,483.020447 
	C975.919922,480.228851 974.075623,477.723236 972.758301,475.086609 
	C972.758301,475.086609 972.849426,475.095917 972.840515,474.772919 
	C971.851257,472.981049 970.870911,471.512146 969.890503,470.043243 
	C968.671814,468.926910 967.453064,467.810547 965.982117,466.105957 
	C964.151733,464.018188 962.573547,462.518707 961.030884,460.645355 
	C960.966003,458.178009 961.367554,455.889771 960.648560,454.036255 
	C959.545593,451.193085 956.948853,448.815704 956.285950,445.940857 
	C955.155273,441.037476 952.061829,440.047638 947.886414,440.074097 
	C947.886414,440.074097 947.943054,440.049805 947.925781,440.075348 
M1143.129761,454.364471 
	C1143.433960,454.509399 1143.738281,454.654327 1144.042480,454.799225 
	C1143.694946,454.532806 1143.347534,454.266418 1142.839111,453.444336 
	C1142.621704,452.550201 1142.404419,451.656097 1142.187012,450.761963 
	C1141.625610,451.410095 1141.064087,452.058197 1140.502686,452.706299 
	C1141.335083,453.137543 1142.167480,453.568787 1143.129761,454.364471 
z"/>
<path fill="#FAD30F" opacity="1.000000" stroke="none" 
	d="
M1072.000000,507.000000 
	C1074.386597,507.157959 1076.773193,507.315887 1079.387085,507.488861 
	C1078.575562,510.984680 1077.927612,513.775269 1077.500000,515.616943 
	C1079.861572,515.108643 1082.026978,514.780823 1084.098389,514.146057 
	C1085.390503,513.750061 1086.912231,513.181763 1087.690552,512.188904 
	C1091.187988,507.727570 1093.667236,507.086060 1099.026978,509.215881 
	C1101.557495,510.221405 1104.310913,510.653931 1106.932373,511.448303 
	C1107.822510,511.718079 1109.085205,512.098267 1109.379028,512.774841 
	C1111.119141,516.782410 1113.040405,515.510925 1115.976685,513.871094 
	C1118.100098,512.685181 1122.430176,511.933411 1123.573242,513.116516 
	C1128.603027,518.322510 1134.650635,516.678101 1140.102173,518.052490 
	C1142.768433,519.055542 1145.430176,520.071289 1148.103394,521.055603 
	C1149.181030,521.452332 1150.753418,521.440918 1151.298340,522.195007 
	C1154.491577,526.614441 1157.841553,525.168152 1161.611206,523.097717 
	C1162.831543,522.427612 1165.098145,522.348633 1166.236816,523.051392 
	C1175.328613,528.662537 1185.552002,528.390381 1195.588257,528.881409 
	C1197.743896,528.986877 1199.968750,527.679199 1203.438477,526.640198 
	C1206.128296,528.533997 1208.738770,527.346252 1211.019165,523.013062 
	C1212.107422,520.945190 1214.829590,519.532776 1217.081909,518.329163 
	C1220.600708,516.448792 1224.268188,514.769531 1228.027100,513.442139 
	C1230.757080,512.478027 1233.521484,511.586334 1235.626709,515.472839 
	C1236.796509,517.632568 1240.717896,518.279236 1241.944702,520.435303 
	C1245.008789,525.820679 1245.412720,531.680786 1242.083984,537.706665 
	C1242.041870,538.058105 1242.023682,538.005554 1241.640869,538.017456 
	C1239.573242,538.783447 1237.888306,539.537537 1236.203491,540.291626 
	C1236.203491,540.291626 1236.193481,540.221313 1235.860107,540.229980 
	C1230.313599,542.036621 1230.898071,547.288879 1229.057373,551.096130 
	C1229.057373,551.096130 1229.041382,551.030701 1228.788574,551.139648 
	C1228.054932,551.593872 1227.574341,551.939148 1227.093628,552.284485 
	C1227.046753,552.605408 1226.872925,552.826233 1226.158691,553.157959 
	C1225.500610,553.611450 1225.255615,553.854065 1225.010742,554.096741 
	C1225.010742,554.096741 1225.008179,554.005310 1224.865112,554.169556 
	C1224.474121,554.556824 1224.239258,554.792969 1224.017700,555.042175 
	C1224.017700,555.042175 1223.997925,555.000305 1223.614014,554.991882 
	C1221.162109,554.434570 1219.106812,553.830261 1217.023438,553.347900 
	C1212.160278,552.221863 1210.744629,553.689453 1208.701782,558.228394 
	C1207.440674,561.030334 1204.599976,563.973877 1201.784058,565.031921 
	C1197.065918,566.804626 1191.754639,566.926941 1186.780396,568.111206 
	C1182.455811,569.140625 1178.252197,570.678101 1173.995117,571.991028 
	C1173.995117,571.991028 1173.814331,572.184937 1173.339600,572.227539 
	C1172.231812,572.595947 1171.598511,572.921753 1170.965332,573.247559 
	C1170.965332,573.247559 1170.996094,572.982422 1170.920410,573.175537 
	C1170.580688,573.618042 1170.316528,573.867432 1170.052490,574.116882 
	C1170.016724,574.461182 1169.850220,574.721924 1169.135742,575.131775 
	C1168.491821,575.608521 1168.264893,575.852539 1168.037964,576.096558 
	C1168.024780,576.416809 1167.902588,576.687744 1167.264160,577.206543 
	C1166.645386,577.824951 1166.433594,578.146301 1166.221802,578.467590 
	C1166.221802,578.467590 1166.238159,578.191284 1166.136230,578.387695 
	C1165.770264,578.885620 1165.505981,579.187256 1165.241821,579.488831 
	C1165.241821,579.488831 1165.247070,579.202759 1165.135742,579.378479 
	C1164.709595,580.053284 1164.394775,580.552368 1164.080078,581.051453 
	C1164.080078,581.051453 1164.038086,581.036560 1163.743774,581.216431 
	C1161.973633,584.277344 1160.497803,587.158264 1159.021851,590.039185 
	C1159.021851,590.039185 1159.015259,589.992310 1158.602783,590.003174 
	C1149.297974,591.921509 1140.394287,593.779663 1131.529541,595.807373 
	C1130.566895,596.027588 1129.828613,597.227722 1128.986206,597.973206 
	C1128.986206,597.973206 1128.993774,598.007141 1128.658569,598.041260 
	C1127.573608,598.757385 1126.823853,599.439331 1126.074097,600.121277 
	C1126.074097,600.121277 1126.065674,600.033752 1125.904541,600.177856 
	C1125.504272,600.555786 1125.265015,600.789673 1125.025879,601.023560 
	C1125.025879,601.023560 1125.000000,601.000000 1124.733643,601.101807 
	C1124.005249,601.548279 1123.542969,601.892944 1123.080811,602.237671 
	C1123.080811,602.237671 1123.090332,602.142517 1122.851562,602.241821 
	C1122.179810,602.745911 1121.746826,603.150757 1121.313721,603.555603 
	C1121.313721,603.555603 1121.334717,603.485596 1121.022461,603.446716 
	C1119.832764,603.961609 1118.955200,604.515381 1118.077637,605.069214 
	C1118.077637,605.069153 1118.009766,605.011963 1117.765137,605.153564 
	C1117.116455,605.713867 1116.712402,606.132568 1116.308472,606.551331 
	C1116.308472,606.551331 1116.242798,606.315735 1116.099854,606.412170 
	C1115.639282,606.723267 1115.321533,606.937988 1115.003906,607.152649 
	C1115.003906,607.152649 1115.040527,607.060547 1114.664307,607.102966 
	C1111.326538,607.465759 1108.251587,607.397156 1105.436890,608.219788 
	C1102.815552,608.985962 1100.471558,610.700928 1098.005371,611.998169 
	C1098.005371,611.998169 1098.000366,612.004883 1097.614868,612.013062 
	C1094.839966,613.077820 1092.450439,614.134460 1090.061035,615.191040 
	C1089.575562,615.453613 1089.090088,615.716187 1087.988281,615.916809 
	C1084.045776,616.767944 1080.719482,617.681091 1077.393311,618.594299 
	C1077.263794,618.431091 1077.134399,618.267944 1076.833252,618.269531 
	C1075.580322,619.138184 1074.499146,619.842102 1073.417969,620.546021 
	C1073.417969,620.546021 1073.181519,620.189270 1072.969238,620.340454 
	C1071.959595,621.169800 1071.162354,621.847900 1070.364990,622.526001 
	C1070.364990,622.526001 1070.281982,622.328064 1070.121338,622.417847 
	C1069.648071,622.729187 1069.335449,622.950745 1069.022827,623.172241 
	C1069.022827,623.172302 1069.047729,623.072937 1068.820801,623.191406 
	C1068.198486,623.733459 1067.803101,624.157104 1067.407715,624.580811 
	C1067.407715,624.580811 1067.301270,624.393188 1067.137207,624.471802 
	C1066.651855,624.757385 1066.330566,624.964355 1066.009277,625.171326 
	C1066.009277,625.171326 1066.046387,625.068604 1065.721924,625.100098 
	C1063.403320,626.285889 1061.409302,627.440125 1059.415161,628.594360 
	C1059.415161,628.594360 1059.406738,628.573425 1059.003296,628.494385 
	C1056.406616,629.212585 1054.213379,630.009888 1052.020142,630.807251 
	C1051.562988,630.862244 1051.105957,630.917175 1049.958496,630.750977 
	C1047.729736,630.400879 1046.191284,630.271973 1044.652832,630.143066 
	C1044.359741,630.128723 1044.137695,629.995728 1043.772705,629.249634 
	C1041.763794,627.836487 1039.968994,626.917786 1038.174194,625.999023 
	C1038.137085,625.541443 1038.099854,625.083862 1038.283936,623.933960 
	C1039.314941,618.061646 1039.011108,613.134583 1035.266724,608.989319 
	C1035.156738,608.570984 1035.046875,608.152588 1035.059082,607.126160 
	C1034.004761,603.041687 1032.828247,599.565247 1031.651611,596.088867 
	C1031.651611,596.088867 1031.795288,596.108215 1031.823975,595.732300 
	C1031.546753,588.893555 1031.511719,582.400269 1030.791504,575.983948 
	C1030.531982,573.671692 1028.626709,571.544128 1027.472534,569.332275 
	C1027.472534,569.332275 1027.572144,569.319275 1027.535034,569.066650 
	C1027.123901,568.365662 1026.749878,567.917358 1026.375854,567.469116 
	C1026.375854,567.469116 1026.555542,567.227905 1026.500488,567.096497 
	C1026.213623,566.671814 1025.981812,566.378479 1025.750000,566.085205 
	C1025.419800,566.030396 1025.189819,565.848633 1024.942505,565.016479 
	C1024.010742,563.659119 1023.196655,562.825256 1022.382507,561.991394 
	C1021.101685,560.350037 1019.820862,558.708679 1018.173828,556.614746 
	C1017.465942,555.805298 1017.124268,555.448425 1016.782532,555.091553 
	C1016.782532,555.091553 1016.923157,555.086487 1016.787598,554.938477 
	C1016.420776,554.539795 1016.189453,554.289124 1015.958130,554.038391 
	C1015.958130,554.038391 1016.000000,554.000000 1015.940430,553.692139 
	C1015.193420,552.630310 1014.505920,551.876282 1013.818481,551.122314 
	C1013.818481,551.122314 1013.889099,551.104919 1013.851440,550.802368 
	C1013.146912,549.709045 1012.479980,548.918274 1011.813110,548.127441 
	C1011.813110,548.127441 1011.883789,548.107666 1011.849976,547.807129 
	C1011.176697,546.694031 1010.537292,545.881531 1009.897888,545.069031 
	C1009.897888,545.069031 1009.972839,545.034180 1009.912720,544.742188 
	C1009.367432,543.778625 1008.882202,543.107117 1008.397034,542.435547 
	C1008.397034,542.435547 1008.528503,542.408875 1008.562256,541.984253 
	C1007.391296,538.709534 1006.186584,535.859375 1004.981934,533.009277 
	C1004.654541,532.541504 1004.327148,532.073669 1004.126465,531.099365 
	C1004.496887,530.071655 1004.740662,529.550476 1004.984436,529.029297 
	C1006.477783,526.108948 1006.787903,523.794373 1003.529663,521.383850 
	C1000.216064,518.932556 1000.114319,513.437683 1002.767090,510.110016 
	C1003.608459,509.054657 1005.540161,507.617035 1006.198242,507.938751 
	C1007.406677,508.529602 1008.263306,510.204041 1008.843750,511.602264 
	C1009.327820,512.768188 1009.206848,514.185181 1009.206970,514.186707 
	C1012.415100,516.396240 1014.589661,518.574158 1017.200073,519.443054 
	C1018.829773,519.985535 1021.435730,519.011475 1023.034241,517.899475 
	C1025.441895,516.224426 1027.028809,513.200195 1029.557007,511.912720 
	C1032.478149,510.425079 1036.068359,509.485596 1039.320312,509.605103 
	C1043.465576,509.757477 1045.120972,512.890076 1045.001953,518.460693 
	C1045.627563,518.460693 1046.394409,518.701111 1046.841553,518.424561 
	C1053.351074,514.399109 1059.868530,510.381653 1066.265625,506.181976 
	C1068.329834,504.826752 1070.050415,502.970825 1071.662598,506.787598 
	C1071.222412,507.701813 1070.917358,508.197906 1070.612183,508.693970 
	C1070.859863,508.803406 1071.107544,508.912872 1071.355347,509.022308 
	C1071.570190,508.348206 1071.785156,507.674103 1072.000000,507.000000 
M1066.793823,521.875183 
	C1066.945679,521.904419 1067.097534,521.933655 1067.249390,521.962891 
	C1067.144653,521.891846 1067.039917,521.820801 1066.793823,521.875183 
z"/>
<path fill="#FBD509" opacity="1.000000" stroke="none" 
	d="
M1264.449707,508.033356 
	C1264.406372,506.905670 1264.342896,505.437134 1264.950195,504.339844 
	C1268.501221,497.923248 1265.109741,492.085052 1263.328247,486.264618 
	C1262.256226,482.761597 1259.377319,480.694855 1255.229614,480.864990 
	C1253.904541,480.919312 1252.179932,480.223297 1251.243164,479.273682 
	C1245.483032,473.434784 1244.095215,472.675476 1235.663818,471.936859 
	C1235.282104,470.160645 1234.876709,468.274872 1234.357910,465.860779 
	C1229.460938,466.405487 1223.962402,464.100586 1220.771118,470.698669 
	C1216.635132,465.818512 1212.479126,469.209015 1208.275879,469.768341 
	C1206.332397,470.026917 1204.193359,469.161163 1202.197754,468.607361 
	C1198.463501,467.571045 1194.809570,465.651337 1191.048706,465.446106 
	C1185.635254,465.150726 1180.135254,466.498840 1175.222412,462.857269 
	C1174.492310,462.316193 1172.536621,462.571564 1171.682739,463.193024 
	C1165.963745,467.354919 1154.805054,464.467682 1151.715088,457.644928 
	C1150.720703,455.449097 1150.185303,453.631104 1147.290161,453.132904 
	C1146.353882,452.971802 1145.876465,450.144440 1145.193359,448.149536 
	C1145.949585,448.996246 1146.701782,450.230103 1147.581421,451.673340 
	C1148.078979,447.133301 1148.224854,442.615326 1149.206665,438.287018 
	C1149.649658,436.333649 1151.757935,434.758026 1153.110718,433.011047 
	C1154.374146,435.104340 1156.391724,437.087677 1156.716675,439.317719 
	C1157.157715,442.343445 1156.010376,445.562500 1156.058838,448.690674 
	C1156.203369,458.048462 1160.690308,461.509827 1169.930298,460.501190 
	C1173.962158,460.061066 1178.171021,460.598907 1182.229126,461.182709 
	C1189.994385,462.299866 1196.998657,461.113159 1202.606812,455.252197 
	C1209.275635,448.282715 1215.795654,441.171021 1222.414795,434.153595 
	C1222.944214,433.592316 1223.742676,433.284851 1224.813354,432.608582 
	C1228.463623,437.604492 1228.942871,443.251740 1228.754395,448.733276 
	C1228.473999,456.893097 1230.480713,459.827667 1238.068604,462.364868 
	C1246.188110,465.079803 1254.166260,468.289581 1261.986572,471.775696 
	C1263.927124,472.640778 1265.586426,475.194824 1266.389160,477.341156 
	C1268.227783,482.257660 1270.817261,485.856720 1277.382935,485.862854 
	C1275.558838,494.966339 1271.148560,501.956238 1264.449707,508.033356 
z"/>
<path fill="#FBD50C" opacity="1.000000" stroke="none" 
	d="
M1174.406982,571.999512 
	C1178.252197,570.678101 1182.455811,569.140625 1186.780396,568.111206 
	C1191.754639,566.926941 1197.065918,566.804626 1201.784058,565.031921 
	C1204.599976,563.973877 1207.440674,561.030334 1208.701782,558.228394 
	C1210.744629,553.689453 1212.160278,552.221863 1217.023438,553.347900 
	C1219.106812,553.830261 1221.162109,554.434570 1223.634277,555.003052 
	C1223.003784,555.558105 1221.906250,556.650330 1220.944580,556.541504 
	C1213.027832,555.645569 1210.513428,557.571533 1209.666138,565.747742 
	C1198.092163,567.827026 1186.455566,569.917542 1174.406982,571.999512 
z"/>
<path fill="#FBD509" opacity="1.000000" stroke="none" 
	d="
M947.957947,440.424072 
	C952.061829,440.047638 955.155273,441.037476 956.285950,445.940857 
	C956.948853,448.815704 959.545593,451.193085 960.648560,454.036255 
	C961.367554,455.889771 960.966003,458.178009 960.778442,460.544861 
	C959.659607,460.919739 958.828796,461.021301 957.997986,461.122894 
	C957.217285,460.568726 955.709290,459.926727 955.764038,459.473419 
	C956.696899,451.746613 950.263489,447.128571 947.957947,440.424072 
z"/>
<path fill="#EEDA08" opacity="1.000000" stroke="none" 
	d="
M972.833435,475.472229 
	C974.075623,477.723236 975.919922,480.228851 976.613892,483.020447 
	C978.936279,492.361511 980.847412,501.804871 982.951416,511.607483 
	C982.005737,510.005280 980.641602,508.101196 980.108643,505.987549 
	C977.584290,495.975616 975.286865,485.906525 972.833435,475.472229 
z"/>
<path fill="#EEDA09" opacity="1.000000" stroke="none" 
	d="
M1129.359619,597.872437 
	C1129.828613,597.227722 1130.566895,596.027588 1131.529541,595.807373 
	C1140.394287,593.779663 1149.297974,591.921509 1158.617920,590.021729 
	C1153.086304,591.690308 1147.139648,593.398315 1141.163452,594.994751 
	C1137.376221,596.006287 1133.544800,596.851685 1129.359619,597.872437 
z"/>
<path fill="#F1DB08" opacity="1.000000" stroke="none" 
	d="
M1027.637573,569.711304 
	C1028.626709,571.544128 1030.531982,573.671692 1030.791504,575.983948 
	C1031.511719,582.400269 1031.546753,588.893555 1031.813232,595.803955 
	C1030.877319,589.445374 1030.018066,582.633850 1029.060547,575.836243 
	C1028.787842,573.900269 1028.229736,572.004517 1027.637573,569.711304 
z"/>
<path fill="#EEDA09" opacity="1.000000" stroke="none" 
	d="
M1098.373535,611.939270 
	C1100.471558,610.700928 1102.815552,608.985962 1105.436890,608.219788 
	C1108.251587,607.397156 1111.326538,607.465759 1114.710205,607.121582 
	C1112.897217,607.813477 1110.677002,608.581604 1108.422974,609.232178 
	C1105.208984,610.159973 1101.970093,611.001831 1098.373535,611.939270 
z"/>
<path fill="#F1DB08" opacity="1.000000" stroke="none" 
	d="
M1035.318359,609.372192 
	C1039.011108,613.134583 1039.314941,618.061646 1038.348389,623.594543 
	C1037.250977,619.216614 1036.310425,614.485901 1035.318359,609.372192 
z"/>
<path fill="#FBD50C" opacity="1.000000" stroke="none" 
	d="
M1229.402954,551.010132 
	C1230.898071,547.288879 1230.313599,542.036621 1235.895508,540.232910 
	C1235.061768,542.301147 1233.888428,544.392944 1232.647339,546.443726 
	C1231.726685,547.964783 1230.718018,549.432556 1229.402954,551.010132 
z"/>
<path fill="#EEDA09" opacity="1.000000" stroke="none" 
	d="
M1159.395996,590.036377 
	C1160.497803,587.158264 1161.973633,584.277344 1163.755127,581.235718 
	C1163.862549,584.651306 1164.479004,588.617676 1159.395996,590.036377 
z"/>
<path fill="#F1DB08" opacity="1.000000" stroke="none" 
	d="
M1031.736084,596.485107 
	C1032.828247,599.565247 1034.004761,603.041687 1034.994995,606.806580 
	C1033.812622,603.690491 1032.816528,600.285889 1031.736084,596.485107 
z"/>
<path fill="#EEDA09" opacity="1.000000" stroke="none" 
	d="
M1077.765869,618.431274 
	C1080.719482,617.681091 1084.045776,616.767944 1087.695557,615.929932 
	C1084.725464,616.759399 1081.432007,617.513794 1077.765869,618.431274 
z"/>
<path fill="#ECD90A" opacity="1.000000" stroke="none" 
	d="
M1005.023193,533.373596 
	C1006.186584,535.859375 1007.391296,538.709534 1008.496277,541.972046 
	C1007.285828,539.502258 1006.175110,536.620117 1005.023193,533.373596 
z"/>
<path fill="#EEDA08" opacity="1.000000" stroke="none" 
	d="
M958.171814,461.405762 
	C958.828796,461.021301 959.659607,460.919739 960.742920,460.918701 
	C962.573547,462.518707 964.151733,464.018188 965.839600,465.828796 
	C963.414734,464.656128 960.880188,463.172363 958.171814,461.405762 
z"/>
<path fill="#EEDA09" opacity="1.000000" stroke="none" 
	d="
M1090.435059,615.142334 
	C1092.450439,614.134460 1094.839966,613.077820 1097.610962,612.013062 
	C1095.598022,613.034485 1093.203613,614.064026 1090.435059,615.142334 
z"/>
<path fill="#F1DB08" opacity="1.000000" stroke="none" 
	d="
M1052.381836,630.833130 
	C1054.213379,630.009888 1056.406616,629.212585 1058.996582,628.491394 
	C1057.176758,629.331360 1054.960083,630.095215 1052.381836,630.833130 
z"/>
<path fill="#F1DB08" opacity="1.000000" stroke="none" 
	d="
M1059.740112,628.443237 
	C1061.409302,627.440125 1063.403320,626.285889 1065.773193,625.118896 
	C1064.120850,626.168152 1062.093018,627.230103 1059.740112,628.443237 
z"/>
<path fill="#F1DB08" opacity="1.000000" stroke="none" 
	d="
M1038.116699,626.374146 
	C1039.968994,626.917786 1041.763794,627.836487 1043.719971,629.055664 
	C1041.940552,628.487183 1039.999878,627.618164 1038.116699,626.374146 
z"/>
<path fill="#FBD50C" opacity="1.000000" stroke="none" 
	d="
M1236.557495,540.214478 
	C1237.888306,539.537537 1239.573242,538.783447 1241.661621,538.036133 
	C1240.347290,538.741028 1238.629395,539.439209 1236.557495,540.214478 
z"/>
<path fill="#EEDA08" opacity="1.000000" stroke="none" 
	d="
M970.000244,470.362305 
	C970.870911,471.512146 971.851257,472.981049 972.835083,474.818390 
	C971.929016,473.685028 971.019470,472.183197 970.000244,470.362305 
z"/>
<path fill="#EEDA09" opacity="1.000000" stroke="none" 
	d="
M1073.707031,620.415039 
	C1074.499146,619.842102 1075.580322,619.138184 1077.027466,618.510742 
	C1076.260986,619.152893 1075.128662,619.718506 1073.707031,620.415039 
z"/>
<path fill="#F1DB08" opacity="1.000000" stroke="none" 
	d="
M1044.921387,630.440796 
	C1046.191284,630.271973 1047.729736,630.400879 1049.616455,630.689819 
	C1048.373169,630.812744 1046.781616,630.775635 1044.921387,630.440796 
z"/>
<path fill="#EEDA09" opacity="1.000000" stroke="none" 
	d="
M1126.363403,600.023560 
	C1126.823853,599.439331 1127.573608,598.757385 1128.645630,598.028687 
	C1128.196167,598.630005 1127.424438,599.277954 1126.363403,600.023560 
z"/>
<path fill="#F1DB08" opacity="1.000000" stroke="none" 
	d="
M1022.484863,562.266846 
	C1023.196655,562.825256 1024.010742,563.659119 1024.890869,564.794312 
	C1024.166870,564.244507 1023.376953,563.393372 1022.484863,562.266846 
z"/>
<path fill="#ECD90A" opacity="1.000000" stroke="none" 
	d="
M1009.965454,545.378845 
	C1010.537292,545.881531 1011.176697,546.694031 1011.839233,547.842163 
	C1011.252563,547.348145 1010.642761,546.518372 1009.965454,545.378845 
z"/>
<path fill="#ECD90A" opacity="1.000000" stroke="none" 
	d="
M1013.902283,551.421753 
	C1014.505920,551.876282 1015.193420,552.630310 1015.920471,553.711853 
	C1015.302002,553.266663 1014.644043,552.493896 1013.902283,551.421753 
z"/>
<path fill="#EEDA09" opacity="1.000000" stroke="none" 
	d="
M1070.646484,622.398376 
	C1071.162354,621.847900 1071.959595,621.169800 1073.100708,620.509277 
	C1072.605713,621.108154 1071.766846,621.689392 1070.646484,622.398376 
z"/>
<path fill="#ECD90A" opacity="1.000000" stroke="none" 
	d="
M1011.901672,548.429565 
	C1012.479980,548.918274 1013.146912,549.709045 1013.840454,550.837036 
	C1013.241455,550.360046 1012.615845,549.545898 1011.901672,548.429565 
z"/>
<path fill="#EEDA09" opacity="1.000000" stroke="none" 
	d="
M1118.381104,605.012939 
	C1118.955200,604.515381 1119.832764,603.961609 1121.055908,603.461670 
	C1120.495728,603.995911 1119.590088,604.476318 1118.381104,605.012939 
z"/>
<path fill="#ECD90A" opacity="1.000000" stroke="none" 
	d="
M1004.606262,529.042725 
	C1004.740662,529.550476 1004.496887,530.071655 1004.066284,530.814331 
	C1003.538757,530.589600 1003.198059,530.143433 1002.786743,529.414307 
	C1003.220093,529.106262 1003.724121,529.081238 1004.606262,529.042725 
z"/>
<path fill="#ECD90A" opacity="1.000000" stroke="none" 
	d="
M1008.501099,542.737793 
	C1008.882202,543.107117 1009.367432,543.778625 1009.888916,544.775940 
	C1009.485168,544.414490 1009.045166,543.727234 1008.501099,542.737793 
z"/>
<path fill="#FBD50C" opacity="1.000000" stroke="none" 
	d="
M1227.390137,552.200073 
	C1227.574341,551.939148 1228.054932,551.593872 1228.819336,551.153076 
	C1228.630981,551.410278 1228.158813,551.762939 1227.390137,552.200073 
z"/>
<path fill="#EEDA09" opacity="1.000000" stroke="none" 
	d="
M1123.373169,602.164612 
	C1123.542969,601.892944 1124.005249,601.548279 1124.743896,601.115356 
	C1124.568848,601.381958 1124.117188,601.736755 1123.373169,602.164612 
z"/>
<path fill="#EEDA09" opacity="1.000000" stroke="none" 
	d="
M1121.594971,603.440796 
	C1121.746826,603.150757 1122.179810,602.745911 1122.899170,602.247192 
	C1122.749023,602.544189 1122.312744,602.935059 1121.594971,603.440796 
z"/>
<path fill="#EEDA09" opacity="1.000000" stroke="none" 
	d="
M1116.580933,606.429138 
	C1116.712402,606.132568 1117.116455,605.713867 1117.793701,605.187500 
	C1117.662354,605.488892 1117.257812,605.897949 1116.580933,606.429138 
z"/>
<path fill="#F1DB08" opacity="1.000000" stroke="none" 
	d="
M1067.667725,624.442261 
	C1067.803101,624.157104 1068.198486,623.733459 1068.870361,623.204102 
	C1068.740479,623.500183 1068.334106,623.901917 1067.667725,624.442261 
z"/>
<path fill="#EEDA08" opacity="1.000000" stroke="none" 
	d="
M984.087952,513.292480 
	C984.440308,513.360107 984.913635,513.697144 985.529663,514.296143 
	C985.184631,514.225952 984.696777,513.893921 984.087952,513.292480 
z"/>
<path fill="#FBD509" opacity="1.000000" stroke="none" 
	d="
M1261.302979,511.944153 
	C1261.285522,511.714020 1261.506592,511.403503 1261.892090,511.059509 
	C1261.884766,511.305298 1261.713257,511.584534 1261.302979,511.944153 
z"/>
<path fill="#FBD509" opacity="1.000000" stroke="none" 
	d="
M1263.285645,509.865601 
	C1263.292847,509.489075 1263.574463,508.968506 1264.062988,508.227051 
	C1264.033203,508.577972 1263.796509,509.149750 1263.285645,509.865601 
z"/>
<path fill="#EEDA09" opacity="1.000000" stroke="none" 
	d="
M1164.334961,580.897827 
	C1164.394775,580.552368 1164.709595,580.053284 1165.278687,579.382324 
	C1165.218506,579.721680 1164.904053,580.232971 1164.334961,580.897827 
z"/>
<path fill="#ECD90A" opacity="1.000000" stroke="none" 
	d="
M1016.854675,555.340454 
	C1017.124268,555.448425 1017.465942,555.805298 1017.904053,556.391785 
	C1017.642517,556.277344 1017.284668,555.933350 1016.854675,555.340454 
z"/>
<path fill="#F1DB08" opacity="1.000000" stroke="none" 
	d="
M1026.519287,567.719788 
	C1026.749878,567.917358 1027.123901,568.365662 1027.539429,569.116638 
	C1027.274902,568.936401 1026.968750,568.453430 1026.519287,567.719788 
z"/>
<path fill="#FBD50C" opacity="1.000000" stroke="none" 
	d="
M1171.330078,573.197510 
	C1171.598511,572.921753 1172.231812,572.595947 1173.214478,572.183838 
	C1172.940918,572.447571 1172.317749,572.797485 1171.330078,573.197510 
z"/>
<path fill="#EEDA09" opacity="1.000000" stroke="none" 
	d="
M1115.298706,607.083984 
	C1115.321533,606.937988 1115.639282,606.723267 1116.218018,606.380798 
	C1116.183960,606.507080 1115.888672,606.761169 1115.298706,607.083984 
z"/>
<path fill="#FBD50C" opacity="1.000000" stroke="none" 
	d="
M1168.278564,575.991943 
	C1168.264893,575.852539 1168.491821,575.608521 1168.906006,575.198730 
	C1168.901855,575.317810 1168.710571,575.602539 1168.278564,575.991943 
z"/>
<path fill="#ECD90A" opacity="1.000000" stroke="none" 
	d="
M1001.043091,527.278198 
	C1001.231750,527.224915 1001.467773,527.449524 1001.819824,527.901245 
	C1001.680664,527.909485 1001.398926,527.718811 1001.043091,527.278198 
z"/>
<path fill="#ECD90A" opacity="1.000000" stroke="none" 
	d="
M1000.081909,526.242981 
	C1000.266296,526.184448 1000.499512,526.397522 1000.837402,526.839111 
	C1000.702454,526.849487 1000.432068,526.665100 1000.081909,526.242981 
z"/>
<path fill="#ECD90A" opacity="1.000000" stroke="none" 
	d="
M995.830139,522.389771 
	C995.996582,522.352600 996.283264,522.572815 996.746155,523.000000 
	C996.598328,523.020447 996.274414,522.833801 995.830139,522.389771 
z"/>
<path fill="#FBD50C" opacity="1.000000" stroke="none" 
	d="
M1170.325195,574.016846 
	C1170.316528,573.867432 1170.580688,573.618042 1171.053101,573.190674 
	C1171.040283,573.314087 1170.819092,573.615479 1170.325195,574.016846 
z"/>
<path fill="#EEDA09" opacity="1.000000" stroke="none" 
	d="
M1166.490601,578.325256 
	C1166.433594,578.146301 1166.645386,577.824951 1167.055420,577.296631 
	C1167.088989,577.454163 1166.924194,577.818542 1166.490601,578.325256 
z"/>
<path fill="#EEDA09" opacity="1.000000" stroke="none" 
	d="
M1069.316406,623.100647 
	C1069.335449,622.950745 1069.648071,622.729187 1070.220947,622.377808 
	C1070.190796,622.508362 1069.900391,622.768677 1069.316406,623.100647 
z"/>
<path fill="#EEDA09" opacity="1.000000" stroke="none" 
	d="
M1165.525391,579.355347 
	C1165.505981,579.187256 1165.770264,578.885620 1166.274414,578.397095 
	C1166.279175,578.547363 1166.044067,578.884644 1165.525391,579.355347 
z"/>
<path fill="#F1DB08" opacity="1.000000" stroke="none" 
	d="
M1066.304443,625.107056 
	C1066.330566,624.964355 1066.651855,624.757385 1067.231812,624.419983 
	C1067.193481,624.540649 1066.896484,624.791687 1066.304443,625.107056 
z"/>
<path fill="#EEDA08" opacity="1.000000" stroke="none" 
	d="
M985.641541,514.516968 
	C985.818665,514.479553 986.143677,514.720459 986.665283,515.188843 
	C986.504395,515.209351 986.146912,515.002380 985.641541,514.516968 
z"/>
<path fill="#F1DB08" opacity="1.000000" stroke="none" 
	d="
M1025.841064,566.373413 
	C1025.981812,566.378479 1026.213623,566.671814 1026.620605,567.186829 
	C1026.508057,567.159546 1026.220215,566.910583 1025.841064,566.373413 
z"/>
<path fill="#EEDA09" opacity="1.000000" stroke="none" 
	d="
M1125.285156,600.954712 
	C1125.265015,600.789673 1125.504272,600.555786 1125.948242,600.173889 
	C1125.950195,600.312561 1125.747314,600.599243 1125.285156,600.954712 
z"/>
<path fill="#FBD50C" opacity="1.000000" stroke="none" 
	d="
M1224.268066,554.953369 
	C1224.239258,554.792969 1224.474121,554.556824 1224.910889,554.168579 
	C1224.906006,554.290344 1224.712280,554.577454 1224.268066,554.953369 
z"/>
<path fill="#ECD90A" opacity="1.000000" stroke="none" 
	d="
M1016.024292,554.302856 
	C1016.189453,554.289124 1016.420776,554.539795 1016.789673,555.008789 
	C1016.648315,555.007202 1016.369385,554.787231 1016.024292,554.302856 
z"/>
<path fill="#FBD50C" opacity="1.000000" stroke="none" 
	d="
M1225.269775,554.008423 
	C1225.255615,553.854065 1225.500610,553.611450 1225.944336,553.204346 
	C1225.938354,553.333191 1225.733643,553.626648 1225.269775,554.008423 
z"/>
<path fill="#FBD509" opacity="1.000000" stroke="none" 
	d="
M1142.919556,453.722168 
	C1142.167480,453.568787 1141.335083,453.137543 1140.502686,452.706299 
	C1141.064087,452.058197 1141.625610,451.410095 1142.187012,450.761963 
	C1142.404419,451.656097 1142.621704,452.550201 1142.919556,453.722168 
z"/>
<path fill="#FBD509" opacity="1.000000" stroke="none" 
	d="
M1143.064941,454.182251 
	C1143.347534,454.266418 1143.694946,454.532806 1144.042480,454.799255 
	C1143.738281,454.654327 1143.433960,454.509399 1143.064941,454.182251 
z"/>
<path fill="#FBD50C" opacity="1.000000" stroke="none" 
	d="
M1071.763672,507.102844 
	C1071.785156,507.674103 1071.570190,508.348206 1071.355347,509.022308 
	C1071.107544,508.912872 1070.859863,508.803406 1070.612183,508.693970 
	C1070.917358,508.197906 1071.222412,507.701813 1071.763672,507.102844 
z"/>
<path fill="#FBD50C" opacity="1.000000" stroke="none" 
	d="
M1066.864502,521.812500 
	C1067.039917,521.820801 1067.144653,521.891846 1067.249390,521.962891 
	C1067.097534,521.933655 1066.945679,521.904419 1066.864502,521.812500 
z"/>
</svg>